{"glyphs":{"0":{"ha":586,"x_min":0,"x_max":521,"o":"m 0 174 l 0 694 l 65 694 l 65 781 l 130 781 l 130 868 l 391 868 l 391 781 l 456 781 l 456 694 l 521 694 l 521 174 l 456 174 l 456 87 l 391 87 l 391 0 l 130 0 l 130 87 l 65 87 l 65 174 l 0 174 m 130 174 l 195 174 l 195 87 l 326 87 l 326 174 l 391 174 l 391 694 l 326 694 l 326 781 l 195 781 l 195 694 l 130 694 l 130 174 m 195 347 l 195 521 l 326 521 l 326 347 l 195 347 z "},"1":{"ha":586,"x_min":65,"x_max":456,"o":"m 65 0 l 65 87 l 195 87 l 195 608 l 65 608 l 65 694 l 130 694 l 130 781 l 195 781 l 195 868 l 326 868 l 326 87 l 456 87 l 456 0 l 65 0 z "},"2":{"ha":586,"x_min":0,"x_max":456,"o":"m 0 0 l 0 260 l 65 260 l 65 347 l 130 347 l 130 434 l 195 434 l 195 521 l 260 521 l 260 608 l 326 608 l 326 781 l 130 781 l 130 694 l 0 694 l 0 781 l 65 781 l 65 868 l 391 868 l 391 781 l 456 781 l 456 608 l 391 608 l 391 521 l 326 521 l 326 434 l 260 434 l 260 347 l 195 347 l 195 260 l 130 260 l 130 87 l 326 87 l 326 174 l 456 174 l 456 0 l 0 0 z "},"3":{"ha":586,"x_min":0,"x_max":456,"o":"m 0 87 l 0 174 l 130 174 l 130 87 l 326 87 l 326 434 l 130 434 l 130 521 l 326 521 l 326 781 l 130 781 l 130 694 l 0 694 l 0 781 l 65 781 l 65 868 l 391 868 l 391 781 l 456 781 l 456 521 l 391 521 l 391 434 l 456 434 l 456 87 l 391 87 l 391 0 l 65 0 l 65 87 l 0 87 z "},"4":{"ha":586,"x_min":0,"x_max":456,"o":"m 0 347 l 0 521 l 65 521 l 65 608 l 130 608 l 130 694 l 195 694 l 195 781 l 260 781 l 260 868 l 391 868 l 391 434 l 456 434 l 456 347 l 391 347 l 391 87 l 456 87 l 456 0 l 195 0 l 195 87 l 260 87 l 260 347 l 0 347 m 130 434 l 260 434 l 260 608 l 195 608 l 195 521 l 130 521 l 130 434 z "},"5":{"ha":586,"x_min":0,"x_max":456,"o":"m 0 87 l 0 174 l 130 174 l 130 87 l 326 87 l 326 434 l 0 434 l 0 868 l 456 868 l 456 781 l 130 781 l 130 521 l 391 521 l 391 434 l 456 434 l 456 87 l 391 87 l 391 0 l 65 0 l 65 87 l 0 87 z "},"6":{"ha":586,"x_min":0,"x_max":456,"o":"m 0 87 l 0 694 l 65 694 l 65 781 l 130 781 l 130 868 l 326 868 l 326 781 l 195 781 l 195 694 l 130 694 l 130 521 l 391 521 l 391 434 l 456 434 l 456 87 l 391 87 l 391 0 l 65 0 l 65 87 l 0 87 m 130 87 l 326 87 l 326 434 l 130 434 l 130 87 z "},"7":{"ha":586,"x_min":0,"x_max":456,"o":"m 0 868 l 456 868 l 456 521 l 391 521 l 391 434 l 326 434 l 326 347 l 260 347 l 260 0 l 130 0 l 130 347 l 195 347 l 195 434 l 260 434 l 260 521 l 326 521 l 326 781 l 130 781 l 130 694 l 0 694 l 0 868 z "},"8":{"ha":586,"x_min":0,"x_max":456,"o":"m 0 87 l 0 434 l 65 434 l 65 521 l 0 521 l 0 781 l 65 781 l 65 868 l 391 868 l 391 781 l 456 781 l 456 521 l 391 521 l 391 434 l 456 434 l 456 87 l 391 87 l 391 0 l 65 0 l 65 87 l 0 87 m 130 87 l 326 87 l 326 434 l 130 434 l 130 87 m 130 521 l 326 521 l 326 781 l 130 781 l 130 521 z "},"9":{"ha":586,"x_min":0,"x_max":456,"o":"m 0 521 l 0 781 l 65 781 l 65 868 l 391 868 l 391 781 l 456 781 l 456 174 l 391 174 l 391 87 l 326 87 l 326 0 l 65 0 l 65 87 l 260 87 l 260 174 l 326 174 l 326 434 l 65 434 l 65 521 l 0 521 m 130 521 l 326 521 l 326 781 l 130 781 l 130 521 z "},"\u0000":{"ha":586,"x_min":0,"x_max":0,"o":""},"\r":{"ha":586,"x_min":0,"x_max":521,"o":"m 0 174 l 65 174 l 65 260 l 130 260 l 130 868 l 521 868 l 521 608 l 260 608 l 260 87 l 195 87 l 195 0 l 0 0 l 0 174 m 260 781 l 260 694 l 391 694 l 391 781 l 260 781 z "},"\u0001":{"ha":586,"x_min":0,"x_max":521,"o":"m 0 87 l 0 781 l 65 781 l 65 87 l 0 87 m 130 347 l 130 434 l 391 434 l 391 347 l 326 347 l 326 260 l 195 260 l 195 347 l 130 347 m 130 608 l 130 694 l 195 694 l 195 608 l 130 608 m 391 608 l 326 608 l 326 694 l 391 694 l 391 608 m 521 87 l 456 87 l 456 781 l 521 781 l 521 87 m 65 87 l 456 87 l 456 0 l 65 0 l 65 87 m 65 781 l 65 868 l 456 868 l 456 781 l 65 781 z "},"\u0002":{"ha":586,"x_min":0,"x_max":521,"o":"m 0 87 l 0 781 l 65 781 l 65 868 l 456 868 l 456 781 l 521 781 l 521 87 l 456 87 l 456 0 l 65 0 l 65 87 l 0 87 m 130 434 l 130 347 l 195 347 l 195 260 l 326 260 l 326 347 l 391 347 l 391 434 l 130 434 m 130 608 l 195 608 l 195 694 l 130 694 l 130 608 m 391 608 l 391 694 l 326 694 l 326 608 l 391 608 z "},"\u0003":{"ha":586,"x_min":0,"x_max":456,"o":"m 0 260 l 0 608 l 65 608 l 65 694 l 195 694 l 195 608 l 260 608 l 260 694 l 391 694 l 391 608 l 456 608 l 456 260 l 391 260 l 391 174 l 326 174 l 326 87 l 260 87 l 260 0 l 195 0 l 195 87 l 130 87 l 130 174 l 65 174 l 65 260 l 0 260 z "},"\u0004":{"ha":586,"x_min":0,"x_max":456,"o":"m 0 347 l 0 434 l 65 434 l 65 521 l 130 521 l 130 608 l 195 608 l 195 694 l 260 694 l 260 608 l 326 608 l 326 521 l 391 521 l 391 434 l 456 434 l 456 347 l 391 347 l 391 260 l 326 260 l 326 174 l 260 174 l 260 87 l 195 87 l 195 174 l 130 174 l 130 260 l 65 260 l 65 347 l 0 347 z "},"\u0005":{"ha":586,"x_min":0,"x_max":521,"o":"m 0 260 l 0 521 l 130 521 l 130 694 l 195 694 l 195 781 l 326 781 l 326 694 l 391 694 l 391 521 l 521 521 l 521 260 l 326 260 l 326 521 l 195 521 l 195 260 l 0 260 m 130 0 l 130 87 l 195 87 l 195 260 l 326 260 l 326 87 l 391 87 l 391 0 l 130 0 z "},"\u0006":{"ha":586,"x_min":0,"x_max":521,"o":"m 0 347 l 0 521 l 65 521 l 65 608 l 130 608 l 130 694 l 195 694 l 195 781 l 326 781 l 326 694 l 391 694 l 391 608 l 456 608 l 456 521 l 521 521 l 521 347 l 456 347 l 456 260 l 326 260 l 326 87 l 391 87 l 391 0 l 130 0 l 130 87 l 195 87 l 195 260 l 65 260 l 65 347 l 0 347 z "},"\u0007":{"ha":586,"x_min":130,"x_max":391,"o":"m 326 174 l 195 174 l 195 260 l 130 260 l 130 434 l 195 434 l 195 521 l 326 521 l 326 434 l 391 434 l 391 260 l 326 260 l 326 174 z "},"\b":{"ha":586,"x_min":0,"x_max":521,"o":"m 0 -347 l 0 1042 l 521 1042 l 521 -347 l 0 -347 m 130 260 l 195 260 l 195 174 l 326 174 l 326 260 l 391 260 l 391 434 l 326 434 l 326 521 l 195 521 l 195 434 l 130 434 l 130 260 z "},"\t":{"ha":586,"x_min":65,"x_max":456,"o":"m 65 174 l 65 521 l 130 521 l 130 608 l 391 608 l 391 521 l 456 521 l 456 174 l 391 174 l 391 87 l 130 87 l 130 174 l 65 174 m 130 260 l 195 260 l 195 174 l 326 174 l 326 260 l 391 260 l 391 434 l 326 434 l 326 521 l 195 521 l 195 434 l 130 434 l 130 260 z "},"\n":{"ha":586,"x_min":0,"x_max":521,"o":"m 0 -347 l 0 1042 l 521 1042 l 521 -347 l 0 -347 m 130 174 l 130 87 l 391 87 l 391 174 l 456 174 l 456 521 l 391 521 l 391 608 l 130 608 l 130 521 l 65 521 l 65 174 l 130 174 m 130 434 l 195 434 l 195 521 l 326 521 l 326 434 l 391 434 l 391 260 l 326 260 l 326 174 l 195 174 l 195 260 l 130 260 l 130 434 z "},"\u000b":{"ha":586,"x_min":0,"x_max":456,"o":"m 0 87 l 0 434 l 65 434 l 65 521 l 130 521 l 130 608 l 195 608 l 195 694 l 260 694 l 260 781 l 195 781 l 195 868 l 456 868 l 456 521 l 391 521 l 391 694 l 326 694 l 326 608 l 260 608 l 260 521 l 326 521 l 326 434 l 391 434 l 391 87 l 326 87 l 326 0 l 65 0 l 65 87 l 0 87 m 130 87 l 260 87 l 260 434 l 130 434 l 130 87 z "},"\f":{"ha":586,"x_min":65,"x_max":456,"o":"m 130 434 l 65 434 l 65 781 l 130 781 l 130 868 l 391 868 l 391 781 l 456 781 l 456 434 l 391 434 l 391 347 l 326 347 l 326 260 l 456 260 l 456 174 l 326 174 l 326 0 l 195 0 l 195 174 l 65 174 l 65 260 l 195 260 l 195 347 l 130 347 l 130 434 m 195 434 l 326 434 l 326 781 l 195 781 l 195 434 z "},"\u000e":{"ha":586,"x_min":0,"x_max":521,"o":"m 0 174 l 65 174 l 65 868 l 521 868 l 521 87 l 456 87 l 456 0 l 326 0 l 326 260 l 391 260 l 391 608 l 195 608 l 195 0 l 130 0 l 130 -87 l 0 -87 l 0 174 m 195 781 l 195 694 l 391 694 l 391 781 l 195 781 z "},"\u000f":{"ha":586,"x_min":0,"x_max":521,"o":"m 0 174 l 0 260 l 130 260 l 130 174 l 0 174 m 0 347 l 0 434 l 130 434 l 130 521 l 195 521 l 195 781 l 326 781 l 326 521 l 391 521 l 391 434 l 521 434 l 521 347 l 391 347 l 391 260 l 326 260 l 326 0 l 195 0 l 195 260 l 130 260 l 130 347 l 0 347 m 0 521 l 0 608 l 130 608 l 130 521 l 0 521 m 391 174 l 391 260 l 521 260 l 521 174 l 391 174 m 391 521 l 391 608 l 521 608 l 521 521 l 391 521 m 195 434 l 195 347 l 326 347 l 326 434 l 195 434 z "},"\u0010":{"ha":586,"x_min":0,"x_max":456,"o":"m 0 0 l 0 955 l 65 955 l 65 868 l 130 868 l 130 781 l 195 781 l 195 694 l 260 694 l 260 608 l 326 608 l 326 521 l 456 521 l 456 434 l 326 434 l 326 347 l 260 347 l 260 260 l 195 260 l 195 174 l 130 174 l 130 87 l 65 87 l 65 0 l 0 0 z "},"\u0011":{"ha":586,"x_min":0,"x_max":456,"o":"m 0 434 l 0 521 l 130 521 l 130 608 l 195 608 l 195 694 l 260 694 l 260 781 l 326 781 l 326 868 l 391 868 l 391 955 l 456 955 l 456 0 l 391 0 l 391 87 l 326 87 l 326 174 l 260 174 l 260 260 l 195 260 l 195 347 l 130 347 l 130 434 l 0 434 z "},"\u0012":{"ha":586,"x_min":65,"x_max":456,"o":"m 130 174 l 130 260 l 65 260 l 65 347 l 195 347 l 195 608 l 65 608 l 65 694 l 130 694 l 130 781 l 195 781 l 195 868 l 326 868 l 326 781 l 391 781 l 391 694 l 456 694 l 456 608 l 326 608 l 326 347 l 456 347 l 456 260 l 391 260 l 391 174 l 326 174 l 326 87 l 195 87 l 195 174 l 130 174 z "},"\u0013":{"ha":586,"x_min":65,"x_max":456,"o":"m 65 174 l 195 174 l 195 0 l 65 0 l 65 174 m 65 260 l 65 868 l 195 868 l 195 260 l 65 260 m 326 174 l 456 174 l 456 0 l 326 0 l 326 174 m 326 260 l 326 868 l 456 868 l 456 260 l 326 260 z "},"\u0014":{"ha":586,"x_min":0,"x_max":521,"o":"m 521 0 l 391 0 l 391 781 l 326 781 l 326 0 l 195 0 l 195 434 l 65 434 l 65 521 l 0 521 l 0 781 l 65 781 l 65 868 l 521 868 l 521 0 m 130 521 l 195 521 l 195 781 l 130 781 l 130 521 z "},"\u0015":{"ha":586,"x_min":0,"x_max":456,"o":"m 0 0 l 0 87 l 130 87 l 130 0 l 326 0 l 326 87 l 260 87 l 260 174 l 130 174 l 130 260 l 65 260 l 65 347 l 0 347 l 0 521 l 65 521 l 65 608 l 130 608 l 130 694 l 65 694 l 65 781 l 0 781 l 0 868 l 65 868 l 65 955 l 391 955 l 391 868 l 456 868 l 456 781 l 326 781 l 326 868 l 130 868 l 130 781 l 195 781 l 195 694 l 326 694 l 326 608 l 391 608 l 391 521 l 456 521 l 456 347 l 391 347 l 391 260 l 326 260 l 326 174 l 391 174 l 391 87 l 456 87 l 456 0 l 391 0 l 391 -87 l 65 -87 l 65 0 l 0 0 m 260 260 l 260 347 l 326 347 l 326 521 l 260 521 l 260 608 l 195 608 l 195 521 l 130 521 l 130 347 l 195 347 l 195 260 l 260 260 z "},"\u0016":{"ha":586,"x_min":0,"x_max":456,"o":"m 0 0 l 0 347 l 456 347 l 456 0 l 0 0 z "},"\u0017":{"ha":586,"x_min":65,"x_max":456,"o":"m 130 174 l 130 260 l 65 260 l 65 347 l 195 347 l 195 608 l 65 608 l 65 694 l 130 694 l 130 781 l 195 781 l 195 868 l 326 868 l 326 781 l 391 781 l 391 694 l 456 694 l 456 608 l 326 608 l 326 347 l 456 347 l 456 260 l 391 260 l 391 174 l 326 174 l 326 87 l 456 87 l 456 0 l 65 0 l 65 87 l 195 87 l 195 174 l 130 174 z "},"\u0018":{"ha":586,"x_min":65,"x_max":456,"o":"m 65 608 l 65 694 l 130 694 l 130 781 l 195 781 l 195 868 l 326 868 l 326 781 l 391 781 l 391 694 l 456 694 l 456 608 l 326 608 l 326 0 l 195 0 l 195 608 l 65 608 z "},"\u0019":{"ha":586,"x_min":65,"x_max":456,"o":"m 65 174 l 65 260 l 195 260 l 195 868 l 326 868 l 326 260 l 456 260 l 456 174 l 391 174 l 391 87 l 326 87 l 326 0 l 195 0 l 195 87 l 130 87 l 130 174 l 65 174 z "},"\u001a":{"ha":586,"x_min":0,"x_max":456,"o":"m 0 347 l 0 434 l 260 434 l 260 521 l 195 521 l 195 608 l 326 608 l 326 521 l 391 521 l 391 434 l 456 434 l 456 347 l 391 347 l 391 260 l 326 260 l 326 174 l 195 174 l 195 260 l 260 260 l 260 347 l 0 347 z "},"\u001b":{"ha":586,"x_min":0,"x_max":456,"o":"m 0 347 l 0 434 l 65 434 l 65 521 l 130 521 l 130 608 l 260 608 l 260 521 l 195 521 l 195 434 l 456 434 l 456 347 l 195 347 l 195 260 l 260 260 l 260 174 l 130 174 l 130 260 l 65 260 l 65 347 l 0 347 z "},"\u001c":{"ha":586,"x_min":0,"x_max":456,"o":"m 0 174 l 0 521 l 130 521 l 130 260 l 456 260 l 456 174 l 0 174 z "},"\u001d":{"ha":586,"x_min":0,"x_max":521,"o":"m 0 347 l 0 434 l 65 434 l 65 521 l 130 521 l 130 608 l 195 608 l 195 434 l 326 434 l 326 608 l 391 608 l 391 521 l 456 521 l 456 434 l 521 434 l 521 347 l 456 347 l 456 260 l 391 260 l 391 174 l 326 174 l 326 347 l 195 347 l 195 174 l 130 174 l 130 260 l 65 260 l 65 347 l 0 347 z "},"\u001e":{"ha":586,"x_min":0,"x_max":456,"o":"m 0 87 l 0 260 l 65 260 l 65 434 l 130 434 l 130 608 l 195 608 l 195 694 l 260 694 l 260 608 l 326 608 l 326 434 l 391 434 l 391 260 l 456 260 l 456 87 l 0 87 z "},"\u001f":{"ha":586,"x_min":0,"x_max":456,"o":"m 0 521 l 0 694 l 456 694 l 456 521 l 391 521 l 391 347 l 326 347 l 326 174 l 260 174 l 260 87 l 195 87 l 195 174 l 130 174 l 130 347 l 65 347 l 65 521 l 0 521 z "}," ":{"ha":586,"x_min":0,"x_max":0,"o":""},"!":{"ha":586,"x_min":130,"x_max":391,"o":"m 130 521 l 130 781 l 195 781 l 195 868 l 326 868 l 326 781 l 391 781 l 391 521 l 326 521 l 326 260 l 195 260 l 195 521 l 130 521 m 195 174 l 326 174 l 326 0 l 195 0 l 195 174 z "},"\"":{"ha":586,"x_min":65,"x_max":456,"o":"m 65 955 l 195 955 l 195 608 l 130 608 l 130 694 l 65 694 l 65 955 m 326 955 l 456 955 l 456 694 l 391 694 l 391 608 l 326 608 l 326 955 z "},"#":{"ha":586,"x_min":0,"x_max":456,"o":"m 0 174 l 0 260 l 65 260 l 65 521 l 0 521 l 0 608 l 65 608 l 65 781 l 195 781 l 195 608 l 260 608 l 260 781 l 391 781 l 391 608 l 456 608 l 456 521 l 391 521 l 391 260 l 456 260 l 456 174 l 391 174 l 391 0 l 260 0 l 260 174 l 195 174 l 195 0 l 65 0 l 65 174 l 0 174 m 260 260 l 260 521 l 195 521 l 195 260 l 260 260 z "},"$":{"ha":586,"x_min":0,"x_max":456,"o":"m 0 87 l 0 260 l 65 260 l 65 174 l 130 174 l 130 87 l 326 87 l 326 434 l 65 434 l 65 521 l 0 521 l 0 781 l 65 781 l 65 868 l 195 868 l 195 1042 l 326 1042 l 326 868 l 391 868 l 391 781 l 456 781 l 456 608 l 391 608 l 391 694 l 326 694 l 326 781 l 130 781 l 130 521 l 391 521 l 391 434 l 456 434 l 456 87 l 391 87 l 391 0 l 326 0 l 326 -174 l 195 -174 l 195 0 l 65 0 l 65 87 l 0 87 z "},"%":{"ha":586,"x_min":0,"x_max":456,"o":"m 0 174 l 65 174 l 65 260 l 130 260 l 130 347 l 195 347 l 195 434 l 260 434 l 260 521 l 326 521 l 326 608 l 391 608 l 391 694 l 456 694 l 456 521 l 391 521 l 391 434 l 326 434 l 326 347 l 260 347 l 260 260 l 195 260 l 195 174 l 130 174 l 130 87 l 65 87 l 65 0 l 0 0 l 0 174 m 0 521 l 0 694 l 130 694 l 130 521 l 0 521 m 326 174 l 456 174 l 456 0 l 326 0 l 326 174 z "},"&":{"ha":586,"x_min":0,"x_max":456,"o":"m 0 87 l 0 434 l 65 434 l 65 521 l 130 521 l 130 608 l 65 608 l 65 781 l 130 781 l 130 868 l 326 868 l 326 781 l 391 781 l 391 608 l 326 608 l 326 521 l 260 521 l 260 434 l 326 434 l 326 521 l 456 521 l 456 434 l 391 434 l 391 87 l 456 87 l 456 0 l 326 0 l 326 87 l 260 87 l 260 347 l 195 347 l 195 434 l 130 434 l 130 87 l 260 87 l 260 0 l 65 0 l 65 87 l 0 87 m 260 608 l 260 781 l 195 781 l 195 608 l 260 608 z "},"'":{"ha":586,"x_min":65,"x_max":260,"o":"m 260 694 l 195 694 l 195 608 l 65 608 l 65 694 l 130 694 l 130 955 l 260 955 l 260 694 z "},"(":{"ha":586,"x_min":130,"x_max":391,"o":"m 130 174 l 130 694 l 195 694 l 195 781 l 260 781 l 260 868 l 391 868 l 391 781 l 326 781 l 326 694 l 260 694 l 260 174 l 326 174 l 326 87 l 391 87 l 391 0 l 260 0 l 260 87 l 195 87 l 195 174 l 130 174 z "},")":{"ha":586,"x_min":130,"x_max":391,"o":"m 130 0 l 130 87 l 195 87 l 195 174 l 260 174 l 260 694 l 195 694 l 195 781 l 130 781 l 130 868 l 260 868 l 260 781 l 326 781 l 326 694 l 391 694 l 391 174 l 326 174 l 326 87 l 260 87 l 260 0 l 130 0 z "},"*":{"ha":586,"x_min":0,"x_max":521,"o":"m 0 347 l 0 434 l 130 434 l 130 521 l 65 521 l 65 608 l 195 608 l 195 521 l 326 521 l 326 608 l 456 608 l 456 521 l 391 521 l 391 434 l 521 434 l 521 347 l 391 347 l 391 260 l 456 260 l 456 174 l 326 174 l 326 260 l 195 260 l 195 174 l 65 174 l 65 260 l 130 260 l 130 347 l 0 347 z "},"+":{"ha":586,"x_min":65,"x_max":456,"o":"m 326 174 l 195 174 l 195 347 l 65 347 l 65 434 l 195 434 l 195 608 l 326 608 l 326 434 l 456 434 l 456 347 l 326 347 l 326 174 z "},",":{"ha":586,"x_min":130,"x_max":326,"o":"m 260 0 l 260 -87 l 130 -87 l 130 0 l 195 0 l 195 260 l 326 260 l 326 0 l 260 0 z "},"-":{"ha":586,"x_min":0,"x_max":456,"o":"m 0 347 l 0 434 l 456 434 l 456 347 l 0 347 z "},".":{"ha":586,"x_min":195,"x_max":326,"o":"m 326 174 l 326 0 l 195 0 l 195 174 l 326 174 z "},"/":{"ha":586,"x_min":0,"x_max":456,"o":"m 0 174 l 65 174 l 65 260 l 130 260 l 130 347 l 195 347 l 195 434 l 260 434 l 260 521 l 326 521 l 326 608 l 391 608 l 391 694 l 456 694 l 456 521 l 391 521 l 391 434 l 326 434 l 326 347 l 260 347 l 260 260 l 195 260 l 195 174 l 130 174 l 130 87 l 65 87 l 65 0 l 0 0 l 0 174 z "},":":{"ha":586,"x_min":195,"x_max":326,"o":"m 326 87 l 195 87 l 195 260 l 326 260 l 326 87 m 326 521 l 195 521 l 195 694 l 326 694 l 326 521 z "},";":{"ha":586,"x_min":130,"x_max":326,"o":"m 260 87 l 260 0 l 130 0 l 130 87 l 195 87 l 195 260 l 326 260 l 326 87 l 260 87 m 326 521 l 195 521 l 195 694 l 326 694 l 326 521 z "},"<":{"ha":586,"x_min":65,"x_max":456,"o":"m 130 434 l 130 521 l 195 521 l 195 608 l 260 608 l 260 694 l 326 694 l 326 781 l 456 781 l 456 694 l 391 694 l 391 608 l 326 608 l 326 521 l 260 521 l 260 434 l 195 434 l 195 347 l 260 347 l 260 260 l 326 260 l 326 174 l 391 174 l 391 87 l 456 87 l 456 0 l 326 0 l 326 87 l 260 87 l 260 174 l 195 174 l 195 260 l 130 260 l 130 347 l 65 347 l 65 434 l 130 434 z "},"=":{"ha":586,"x_min":65,"x_max":456,"o":"m 65 260 l 65 347 l 456 347 l 456 260 l 65 260 m 65 521 l 65 608 l 456 608 l 456 521 l 65 521 z "},">":{"ha":586,"x_min":65,"x_max":456,"o":"m 130 87 l 130 174 l 195 174 l 195 260 l 260 260 l 260 347 l 326 347 l 326 434 l 260 434 l 260 521 l 195 521 l 195 608 l 130 608 l 130 694 l 65 694 l 65 781 l 195 781 l 195 694 l 260 694 l 260 608 l 326 608 l 326 521 l 391 521 l 391 434 l 456 434 l 456 347 l 391 347 l 391 260 l 326 260 l 326 174 l 260 174 l 260 87 l 195 87 l 195 0 l 65 0 l 65 87 l 130 87 z "},"?":{"ha":586,"x_min":0,"x_max":456,"o":"m 0 608 l 0 781 l 65 781 l 65 868 l 391 868 l 391 781 l 456 781 l 456 608 l 391 608 l 391 521 l 326 521 l 326 260 l 195 260 l 195 521 l 260 521 l 260 608 l 326 608 l 326 781 l 130 781 l 130 608 l 0 608 m 195 174 l 326 174 l 326 0 l 195 0 l 195 174 z "},"@":{"ha":586,"x_min":0,"x_max":456,"o":"m 0 87 l 0 694 l 65 694 l 65 781 l 391 781 l 391 694 l 456 694 l 456 260 l 391 260 l 391 174 l 195 174 l 195 521 l 326 521 l 326 694 l 130 694 l 130 87 l 391 87 l 391 0 l 65 0 l 65 87 l 0 87 z "},"A":{"ha":586,"x_min":0,"x_max":456,"o":"m 0 0 l 0 608 l 65 608 l 65 694 l 130 694 l 130 781 l 195 781 l 195 868 l 260 868 l 260 781 l 326 781 l 326 694 l 391 694 l 391 608 l 456 608 l 456 0 l 326 0 l 326 347 l 130 347 l 130 0 l 0 0 m 130 434 l 326 434 l 326 608 l 260 608 l 260 694 l 195 694 l 195 608 l 130 608 l 130 434 z "},"B":{"ha":586,"x_min":0,"x_max":456,"o":"m 0 0 l 0 87 l 65 87 l 65 781 l 0 781 l 0 868 l 391 868 l 391 781 l 456 781 l 456 521 l 391 521 l 391 434 l 456 434 l 456 87 l 391 87 l 391 0 l 0 0 m 195 87 l 326 87 l 326 434 l 195 434 l 195 87 m 195 521 l 326 521 l 326 781 l 195 781 l 195 521 z "},"C":{"ha":586,"x_min":0,"x_max":456,"o":"m 0 174 l 0 694 l 65 694 l 65 781 l 130 781 l 130 868 l 391 868 l 391 781 l 456 781 l 456 608 l 391 608 l 391 694 l 326 694 l 326 781 l 195 781 l 195 694 l 130 694 l 130 174 l 195 174 l 195 87 l 326 87 l 326 174 l 391 174 l 391 260 l 456 260 l 456 87 l 391 87 l 391 0 l 130 0 l 130 87 l 65 87 l 65 174 l 0 174 z "},"D":{"ha":586,"x_min":0,"x_max":456,"o":"m 0 0 l 0 87 l 65 87 l 65 781 l 0 781 l 0 868 l 326 868 l 326 781 l 391 781 l 391 694 l 456 694 l 456 174 l 391 174 l 391 87 l 326 87 l 326 0 l 0 0 m 195 87 l 260 87 l 260 174 l 326 174 l 326 694 l 260 694 l 260 781 l 195 781 l 195 87 z "},"E":{"ha":586,"x_min":0,"x_max":456,"o":"m 0 0 l 0 87 l 65 87 l 65 781 l 0 781 l 0 868 l 456 868 l 456 608 l 391 608 l 391 694 l 326 694 l 326 781 l 195 781 l 195 521 l 260 521 l 260 608 l 326 608 l 326 347 l 260 347 l 260 434 l 195 434 l 195 87 l 326 87 l 326 174 l 391 174 l 391 260 l 456 260 l 456 0 l 0 0 z "},"F":{"ha":586,"x_min":0,"x_max":456,"o":"m 0 0 l 0 87 l 65 87 l 65 781 l 0 781 l 0 868 l 456 868 l 456 608 l 391 608 l 391 694 l 326 694 l 326 781 l 195 781 l 195 521 l 260 521 l 260 608 l 326 608 l 326 347 l 260 347 l 260 434 l 195 434 l 195 87 l 260 87 l 260 0 l 0 0 z "},"G":{"ha":586,"x_min":0,"x_max":456,"o":"m 0 174 l 0 694 l 65 694 l 65 781 l 130 781 l 130 868 l 391 868 l 391 781 l 456 781 l 456 608 l 391 608 l 391 694 l 326 694 l 326 781 l 195 781 l 195 694 l 130 694 l 130 174 l 195 174 l 195 87 l 326 87 l 326 0 l 130 0 l 130 87 l 65 87 l 65 174 l 0 174 m 391 87 l 326 87 l 326 347 l 195 347 l 195 434 l 456 434 l 456 0 l 391 0 l 391 87 z "},"H":{"ha":586,"x_min":0,"x_max":456,"o":"m 0 0 l 0 868 l 130 868 l 130 521 l 326 521 l 326 868 l 456 868 l 456 0 l 326 0 l 326 434 l 130 434 l 130 0 l 0 0 z "},"I":{"ha":586,"x_min":130,"x_max":391,"o":"m 326 87 l 391 87 l 391 0 l 130 0 l 130 87 l 195 87 l 195 781 l 130 781 l 130 868 l 391 868 l 391 781 l 326 781 l 326 87 z "},"J":{"ha":586,"x_min":0,"x_max":456,"o":"m 0 87 l 0 347 l 130 347 l 130 87 l 260 87 l 260 781 l 195 781 l 195 868 l 456 868 l 456 781 l 391 781 l 391 87 l 326 87 l 326 0 l 65 0 l 65 87 l 0 87 z "},"K":{"ha":586,"x_min":0,"x_max":456,"o":"m 0 0 l 0 87 l 65 87 l 65 781 l 0 781 l 0 868 l 195 868 l 195 521 l 260 521 l 260 608 l 326 608 l 326 868 l 456 868 l 456 608 l 391 608 l 391 521 l 326 521 l 326 347 l 391 347 l 391 260 l 456 260 l 456 0 l 326 0 l 326 260 l 260 260 l 260 347 l 195 347 l 195 0 l 0 0 z "},"L":{"ha":586,"x_min":0,"x_max":456,"o":"m 0 0 l 0 87 l 65 87 l 65 781 l 0 781 l 0 868 l 260 868 l 260 781 l 195 781 l 195 87 l 326 87 l 326 174 l 391 174 l 391 260 l 456 260 l 456 0 l 0 0 z "},"M":{"ha":586,"x_min":0,"x_max":521,"o":"m 0 0 l 0 868 l 130 868 l 130 781 l 195 781 l 195 694 l 326 694 l 326 781 l 391 781 l 391 868 l 521 868 l 521 0 l 391 0 l 391 521 l 326 521 l 326 434 l 195 434 l 195 521 l 130 521 l 130 0 l 0 0 z "},"N":{"ha":586,"x_min":0,"x_max":456,"o":"m 0 0 l 0 868 l 130 868 l 130 781 l 195 781 l 195 694 l 260 694 l 260 608 l 326 608 l 326 868 l 456 868 l 456 0 l 326 0 l 326 347 l 260 347 l 260 434 l 195 434 l 195 521 l 130 521 l 130 0 l 0 0 z "},"O":{"ha":586,"x_min":0,"x_max":456,"o":"m 0 87 l 0 781 l 65 781 l 65 868 l 391 868 l 391 781 l 456 781 l 456 87 l 391 87 l 391 0 l 65 0 l 65 87 l 0 87 m 130 87 l 326 87 l 326 781 l 130 781 l 130 87 z "},"P":{"ha":586,"x_min":0,"x_max":456,"o":"m 0 0 l 0 87 l 65 87 l 65 781 l 0 781 l 0 868 l 391 868 l 391 781 l 456 781 l 456 521 l 391 521 l 391 434 l 195 434 l 195 87 l 260 87 l 260 0 l 0 0 m 195 521 l 326 521 l 326 781 l 195 781 l 195 521 z "},"Q":{"ha":586,"x_min":0,"x_max":456,"o":"m 0 87 l 0 781 l 65 781 l 65 868 l 391 868 l 391 781 l 456 781 l 456 87 l 391 87 l 391 -87 l 456 -87 l 456 -174 l 260 -174 l 260 0 l 65 0 l 65 87 l 0 87 m 130 87 l 195 87 l 195 260 l 260 260 l 260 174 l 326 174 l 326 781 l 130 781 l 130 87 z "},"R":{"ha":586,"x_min":0,"x_max":456,"o":"m 0 0 l 0 87 l 65 87 l 65 781 l 0 781 l 0 868 l 391 868 l 391 781 l 456 781 l 456 521 l 391 521 l 391 347 l 456 347 l 456 0 l 326 0 l 326 347 l 260 347 l 260 434 l 195 434 l 195 0 l 0 0 m 195 521 l 326 521 l 326 781 l 195 781 l 195 521 z "},"S":{"ha":586,"x_min":0,"x_max":456,"o":"m 0 87 l 0 260 l 130 260 l 130 87 l 326 87 l 326 347 l 260 347 l 260 434 l 130 434 l 130 521 l 65 521 l 65 608 l 0 608 l 0 781 l 65 781 l 65 868 l 391 868 l 391 781 l 456 781 l 456 608 l 326 608 l 326 781 l 130 781 l 130 608 l 195 608 l 195 521 l 326 521 l 326 434 l 391 434 l 391 347 l 456 347 l 456 87 l 391 87 l 391 0 l 65 0 l 65 87 l 0 87 z "},"T":{"ha":586,"x_min":0,"x_max":521,"o":"m 0 608 l 0 868 l 521 868 l 521 608 l 456 608 l 456 694 l 391 694 l 391 781 l 326 781 l 326 87 l 391 87 l 391 0 l 130 0 l 130 87 l 195 87 l 195 781 l 130 781 l 130 694 l 65 694 l 65 608 l 0 608 z "},"U":{"ha":586,"x_min":0,"x_max":456,"o":"m 0 87 l 0 868 l 130 868 l 130 87 l 326 87 l 326 868 l 456 868 l 456 87 l 391 87 l 391 0 l 65 0 l 65 87 l 0 87 z "},"V":{"ha":586,"x_min":0,"x_max":521,"o":"m 0 260 l 0 868 l 130 868 l 130 260 l 195 260 l 195 174 l 326 174 l 326 260 l 391 260 l 391 868 l 521 868 l 521 260 l 456 260 l 456 174 l 391 174 l 391 87 l 326 87 l 326 0 l 195 0 l 195 87 l 130 87 l 130 174 l 65 174 l 65 260 l 0 260 z "},"W":{"ha":586,"x_min":0,"x_max":521,"o":"m 0 174 l 0 868 l 130 868 l 130 260 l 195 260 l 195 434 l 326 434 l 326 260 l 391 260 l 391 868 l 521 868 l 521 174 l 456 174 l 456 0 l 326 0 l 326 174 l 195 174 l 195 0 l 65 0 l 65 174 l 0 174 z "},"X":{"ha":586,"x_min":0,"x_max":521,"o":"m 0 174 l 65 174 l 65 260 l 130 260 l 130 347 l 195 347 l 195 521 l 130 521 l 130 608 l 65 608 l 65 694 l 0 694 l 0 868 l 130 868 l 130 694 l 195 694 l 195 608 l 326 608 l 326 694 l 391 694 l 391 868 l 521 868 l 521 694 l 456 694 l 456 608 l 391 608 l 391 521 l 326 521 l 326 347 l 391 347 l 391 260 l 456 260 l 456 174 l 521 174 l 521 0 l 391 0 l 391 174 l 326 174 l 326 260 l 195 260 l 195 174 l 130 174 l 130 0 l 0 0 l 0 174 z "},"Y":{"ha":586,"x_min":0,"x_max":521,"o":"m 0 608 l 0 868 l 130 868 l 130 608 l 195 608 l 195 521 l 326 521 l 326 608 l 391 608 l 391 868 l 521 868 l 521 608 l 456 608 l 456 521 l 391 521 l 391 434 l 326 434 l 326 87 l 391 87 l 391 0 l 130 0 l 130 87 l 195 87 l 195 434 l 130 434 l 130 521 l 65 521 l 65 608 l 0 608 z "},"Z":{"ha":586,"x_min":0,"x_max":521,"o":"m 0 0 l 0 260 l 65 260 l 65 347 l 130 347 l 130 434 l 195 434 l 195 521 l 260 521 l 260 608 l 326 608 l 326 694 l 391 694 l 391 781 l 130 781 l 130 694 l 65 694 l 65 608 l 0 608 l 0 868 l 521 868 l 521 694 l 456 694 l 456 608 l 391 608 l 391 521 l 326 521 l 326 434 l 260 434 l 260 347 l 195 347 l 195 260 l 130 260 l 130 87 l 391 87 l 391 174 l 456 174 l 456 260 l 521 260 l 521 0 l 0 0 z "},"[":{"ha":586,"x_min":130,"x_max":391,"o":"m 260 87 l 391 87 l 391 0 l 130 0 l 130 868 l 391 868 l 391 781 l 260 781 l 260 87 z "},"\\":{"ha":586,"x_min":0,"x_max":456,"o":"m 0 521 l 0 781 l 65 781 l 65 694 l 130 694 l 130 608 l 195 608 l 195 521 l 260 521 l 260 434 l 326 434 l 326 347 l 391 347 l 391 260 l 456 260 l 456 0 l 391 0 l 391 87 l 326 87 l 326 174 l 260 174 l 260 260 l 195 260 l 195 347 l 130 347 l 130 434 l 65 434 l 65 521 l 0 521 z "},"]":{"ha":586,"x_min":130,"x_max":391,"o":"m 260 87 l 260 781 l 130 781 l 130 868 l 391 868 l 391 0 l 130 0 l 130 87 l 260 87 z "},"^":{"ha":586,"x_min":0,"x_max":456,"o":"m 0 694 l 0 781 l 65 781 l 65 868 l 130 868 l 130 955 l 195 955 l 195 1042 l 260 1042 l 260 955 l 326 955 l 326 868 l 391 868 l 391 781 l 456 781 l 456 694 l 326 694 l 326 781 l 260 781 l 260 868 l 195 868 l 195 781 l 130 781 l 130 694 l 0 694 z "},"_":{"ha":586,"x_min":0,"x_max":521,"o":"m 0 -174 l 0 -87 l 521 -87 l 521 -174 l 0 -174 z "},"`":{"ha":586,"x_min":130,"x_max":326,"o":"m 260 868 l 326 868 l 326 781 l 195 781 l 195 868 l 130 868 l 130 1042 l 260 1042 l 260 868 z "},"a":{"ha":586,"x_min":0,"x_max":456,"o":"m 0 87 l 0 347 l 65 347 l 65 434 l 260 434 l 260 521 l 65 521 l 65 608 l 326 608 l 326 521 l 391 521 l 391 87 l 456 87 l 456 0 l 326 0 l 326 87 l 260 87 l 260 347 l 130 347 l 130 87 l 260 87 l 260 0 l 65 0 l 65 87 l 0 87 z "},"b":{"ha":586,"x_min":0,"x_max":456,"o":"m 0 781 l 0 868 l 195 868 l 195 608 l 326 608 l 326 521 l 391 521 l 391 434 l 456 434 l 456 87 l 391 87 l 391 0 l 65 0 l 65 781 l 0 781 m 195 87 l 326 87 l 326 434 l 260 434 l 260 521 l 195 521 l 195 87 z "},"c":{"ha":586,"x_min":0,"x_max":456,"o":"m 0 87 l 0 521 l 65 521 l 65 608 l 391 608 l 391 521 l 456 521 l 456 434 l 326 434 l 326 521 l 130 521 l 130 87 l 326 87 l 326 174 l 456 174 l 456 87 l 391 87 l 391 0 l 65 0 l 65 87 l 0 87 z "},"d":{"ha":586,"x_min":0,"x_max":456,"o":"m 0 87 l 0 434 l 65 434 l 65 521 l 130 521 l 130 608 l 260 608 l 260 781 l 195 781 l 195 868 l 391 868 l 391 87 l 456 87 l 456 0 l 326 0 l 326 87 l 260 87 l 260 521 l 195 521 l 195 434 l 130 434 l 130 87 l 260 87 l 260 0 l 65 0 l 65 87 l 0 87 z "},"e":{"ha":586,"x_min":0,"x_max":456,"o":"m 0 87 l 0 521 l 65 521 l 65 608 l 391 608 l 391 521 l 456 521 l 456 347 l 130 347 l 130 87 l 326 87 l 326 174 l 456 174 l 456 87 l 391 87 l 391 0 l 65 0 l 65 87 l 0 87 m 130 434 l 326 434 l 326 521 l 130 521 l 130 434 z "},"f":{"ha":586,"x_min":0,"x_max":391,"o":"m 0 0 l 0 87 l 65 87 l 65 434 l 0 434 l 0 521 l 65 521 l 65 781 l 130 781 l 130 868 l 326 868 l 326 781 l 391 781 l 391 608 l 326 608 l 326 694 l 260 694 l 260 781 l 195 781 l 195 521 l 260 521 l 260 434 l 195 434 l 195 87 l 260 87 l 260 0 l 0 0 z "},"g":{"ha":586,"x_min":0,"x_max":456,"o":"m 0 -174 l 0 -87 l 130 -87 l 130 -174 l 260 -174 l 260 0 l 65 0 l 65 87 l 0 87 l 0 521 l 65 521 l 65 608 l 260 608 l 260 521 l 130 521 l 130 87 l 260 87 l 260 521 l 326 521 l 326 608 l 456 608 l 456 521 l 391 521 l 391 -174 l 326 -174 l 326 -260 l 65 -260 l 65 -174 l 0 -174 z "},"h":{"ha":586,"x_min":0,"x_max":456,"o":"m 0 0 l 0 87 l 65 87 l 65 781 l 0 781 l 0 868 l 195 868 l 195 521 l 260 521 l 260 434 l 195 434 l 195 0 l 0 0 m 260 521 l 260 608 l 391 608 l 391 521 l 456 521 l 456 0 l 326 0 l 326 521 l 260 521 z "},"i":{"ha":586,"x_min":130,"x_max":391,"o":"m 130 0 l 130 87 l 195 87 l 195 521 l 130 521 l 130 608 l 326 608 l 326 87 l 391 87 l 391 0 l 130 0 m 195 868 l 326 868 l 326 694 l 195 694 l 195 868 z "},"j":{"ha":586,"x_min":65,"x_max":456,"o":"m 65 0 l 195 0 l 195 -174 l 326 -174 l 326 521 l 260 521 l 260 608 l 456 608 l 456 -174 l 391 -174 l 391 -260 l 130 -260 l 130 -174 l 65 -174 l 65 0 m 326 868 l 456 868 l 456 694 l 326 694 l 326 868 z "},"k":{"ha":586,"x_min":0,"x_max":456,"o":"m 0 0 l 0 87 l 65 87 l 65 781 l 0 781 l 0 868 l 195 868 l 195 434 l 260 434 l 260 521 l 326 521 l 326 608 l 456 608 l 456 521 l 391 521 l 391 434 l 326 434 l 326 260 l 391 260 l 391 174 l 456 174 l 456 0 l 326 0 l 326 174 l 260 174 l 260 260 l 195 260 l 195 0 l 0 0 z "},"l":{"ha":586,"x_min":130,"x_max":391,"o":"m 326 87 l 391 87 l 391 0 l 130 0 l 130 87 l 195 87 l 195 781 l 130 781 l 130 868 l 326 868 l 326 87 z "},"m":{"ha":586,"x_min":0,"x_max":521,"o":"m 0 0 l 0 608 l 195 608 l 195 521 l 326 521 l 326 608 l 456 608 l 456 521 l 521 521 l 521 0 l 391 0 l 391 434 l 326 434 l 326 0 l 195 0 l 195 434 l 130 434 l 130 0 l 0 0 z "},"n":{"ha":586,"x_min":0,"x_max":456,"o":"m 0 521 l 0 608 l 130 608 l 130 521 l 195 521 l 195 0 l 65 0 l 65 521 l 0 521 m 195 521 l 195 608 l 391 608 l 391 521 l 456 521 l 456 0 l 326 0 l 326 521 l 195 521 z "},"o":{"ha":586,"x_min":0,"x_max":456,"o":"m 0 87 l 0 521 l 65 521 l 65 608 l 391 608 l 391 521 l 456 521 l 456 87 l 391 87 l 391 0 l 65 0 l 65 87 l 0 87 m 130 87 l 326 87 l 326 521 l 130 521 l 130 87 z "},"p":{"ha":586,"x_min":0,"x_max":456,"o":"m 0 -174 l 65 -174 l 65 521 l 0 521 l 0 608 l 130 608 l 130 521 l 195 521 l 195 87 l 326 87 l 326 521 l 195 521 l 195 608 l 391 608 l 391 521 l 456 521 l 456 87 l 391 87 l 391 0 l 195 0 l 195 -174 l 260 -174 l 260 -260 l 0 -260 l 0 -174 z "},"q":{"ha":586,"x_min":0,"x_max":456,"o":"m 0 87 l 0 521 l 65 521 l 65 608 l 260 608 l 260 521 l 130 521 l 130 87 l 260 87 l 260 521 l 326 521 l 326 608 l 456 608 l 456 521 l 391 521 l 391 -174 l 456 -174 l 456 -260 l 195 -260 l 195 -174 l 260 -174 l 260 0 l 65 0 l 65 87 l 0 87 z "},"r":{"ha":586,"x_min":0,"x_max":456,"o":"m 0 0 l 0 87 l 65 87 l 65 521 l 0 521 l 0 608 l 130 608 l 130 521 l 195 521 l 195 608 l 391 608 l 391 521 l 456 521 l 456 347 l 326 347 l 326 521 l 260 521 l 260 434 l 195 434 l 195 87 l 260 87 l 260 0 l 0 0 z "},"s":{"ha":586,"x_min":0,"x_max":456,"o":"m 0 87 l 0 174 l 130 174 l 130 87 l 326 87 l 326 174 l 260 174 l 260 260 l 130 260 l 130 347 l 65 347 l 65 434 l 0 434 l 0 521 l 65 521 l 65 608 l 391 608 l 391 521 l 456 521 l 456 434 l 326 434 l 326 521 l 130 521 l 130 434 l 195 434 l 195 347 l 326 347 l 326 260 l 391 260 l 391 174 l 456 174 l 456 87 l 391 87 l 391 0 l 65 0 l 65 87 l 0 87 z "},"t":{"ha":586,"x_min":0,"x_max":456,"o":"m 0 521 l 0 608 l 130 608 l 130 781 l 195 781 l 195 868 l 260 868 l 260 608 l 391 608 l 391 521 l 260 521 l 260 87 l 326 87 l 326 174 l 456 174 l 456 87 l 391 87 l 391 0 l 195 0 l 195 87 l 130 87 l 130 521 l 0 521 z "},"u":{"ha":586,"x_min":0,"x_max":456,"o":"m 0 87 l 0 608 l 130 608 l 130 87 l 260 87 l 260 0 l 65 0 l 65 87 l 0 87 m 260 87 l 260 608 l 391 608 l 391 87 l 456 87 l 456 0 l 326 0 l 326 87 l 260 87 z "},"v":{"ha":586,"x_min":0,"x_max":521,"o":"m 0 260 l 0 608 l 130 608 l 130 260 l 195 260 l 195 174 l 326 174 l 326 260 l 391 260 l 391 608 l 521 608 l 521 260 l 456 260 l 456 174 l 391 174 l 391 87 l 326 87 l 326 0 l 195 0 l 195 87 l 130 87 l 130 174 l 65 174 l 65 260 l 0 260 z "},"w":{"ha":586,"x_min":0,"x_max":521,"o":"m 0 87 l 0 608 l 130 608 l 130 174 l 195 174 l 195 347 l 326 347 l 326 174 l 391 174 l 391 608 l 521 608 l 521 87 l 456 87 l 456 0 l 326 0 l 326 87 l 195 87 l 195 0 l 65 0 l 65 87 l 0 87 z "},"x":{"ha":586,"x_min":0,"x_max":521,"o":"m 0 0 l 0 87 l 65 87 l 65 174 l 130 174 l 130 260 l 195 260 l 195 347 l 130 347 l 130 434 l 65 434 l 65 521 l 0 521 l 0 608 l 130 608 l 130 521 l 195 521 l 195 434 l 326 434 l 326 521 l 391 521 l 391 608 l 521 608 l 521 521 l 456 521 l 456 434 l 391 434 l 391 347 l 326 347 l 326 260 l 391 260 l 391 174 l 456 174 l 456 87 l 521 87 l 521 0 l 391 0 l 391 87 l 326 87 l 326 174 l 195 174 l 195 87 l 130 87 l 130 0 l 0 0 z "},"y":{"ha":586,"x_min":0,"x_max":456,"o":"m 0 87 l 0 608 l 130 608 l 130 87 l 326 87 l 326 608 l 456 608 l 456 -87 l 391 -87 l 391 -174 l 326 -174 l 326 -260 l 0 -260 l 0 -174 l 260 -174 l 260 -87 l 326 -87 l 326 0 l 65 0 l 65 87 l 0 87 z "},"z":{"ha":586,"x_min":0,"x_max":456,"o":"m 0 174 l 65 174 l 65 260 l 130 260 l 130 347 l 195 347 l 195 434 l 260 434 l 260 521 l 130 521 l 130 434 l 0 434 l 0 608 l 456 608 l 456 521 l 391 521 l 391 434 l 326 434 l 326 347 l 260 347 l 260 260 l 195 260 l 195 174 l 130 174 l 130 87 l 326 87 l 326 174 l 456 174 l 456 0 l 0 0 l 0 174 z "},"{":{"ha":586,"x_min":65,"x_max":456,"o":"m 65 434 l 65 521 l 195 521 l 195 781 l 260 781 l 260 868 l 456 868 l 456 781 l 326 781 l 326 521 l 260 521 l 260 434 l 326 434 l 326 87 l 456 87 l 456 0 l 260 0 l 260 87 l 195 87 l 195 434 l 65 434 z "},"|":{"ha":586,"x_min":195,"x_max":326,"o":"m 326 0 l 195 0 l 195 434 l 326 434 l 326 0 m 326 521 l 195 521 l 195 868 l 326 868 l 326 521 z "},"}":{"ha":586,"x_min":65,"x_max":456,"o":"m 65 0 l 65 87 l 195 87 l 195 434 l 260 434 l 260 521 l 195 521 l 195 781 l 65 781 l 65 868 l 260 868 l 260 781 l 326 781 l 326 521 l 456 521 l 456 434 l 326 434 l 326 87 l 260 87 l 260 0 l 65 0 z "},"~":{"ha":586,"x_min":0,"x_max":456,"o":"m 0 694 l 0 781 l 65 781 l 65 868 l 260 868 l 260 781 l 326 781 l 326 868 l 456 868 l 456 781 l 391 781 l 391 694 l 195 694 l 195 781 l 130 781 l 130 694 l 0 694 z "},"":{"ha":586,"x_min":0,"x_max":456,"o":"m 0 87 l 0 434 l 65 434 l 65 521 l 130 521 l 130 608 l 195 608 l 195 694 l 260 694 l 260 608 l 326 608 l 326 521 l 391 521 l 391 434 l 456 434 l 456 87 l 0 87 m 130 174 l 326 174 l 326 434 l 260 434 l 260 521 l 195 521 l 195 434 l 130 434 l 130 174 z "}," ":{"ha":586,"x_min":0,"x_max":0,"o":""},"¡":{"ha":586,"x_min":130,"x_max":391,"o":"m 130 87 l 130 347 l 195 347 l 195 608 l 326 608 l 326 347 l 391 347 l 391 87 l 326 87 l 326 0 l 195 0 l 195 87 l 130 87 m 195 868 l 326 868 l 326 694 l 195 694 l 195 868 z "},"¢":{"ha":586,"x_min":0,"x_max":521,"o":"m 0 260 l 0 694 l 65 694 l 65 781 l 195 781 l 195 955 l 326 955 l 326 781 l 456 781 l 456 694 l 521 694 l 521 608 l 391 608 l 391 694 l 130 694 l 130 260 l 391 260 l 391 347 l 521 347 l 521 260 l 456 260 l 456 174 l 326 174 l 326 0 l 195 0 l 195 174 l 65 174 l 65 260 l 0 260 z "},"£":{"ha":586,"x_min":0,"x_max":456,"o":"m 0 174 l 65 174 l 65 521 l 0 521 l 0 608 l 65 608 l 65 868 l 130 868 l 130 955 l 326 955 l 326 868 l 391 868 l 391 694 l 326 694 l 326 781 l 260 781 l 260 868 l 195 868 l 195 608 l 260 608 l 260 521 l 195 521 l 195 87 l 326 87 l 326 174 l 456 174 l 456 87 l 391 87 l 391 0 l 0 0 l 0 174 z "},"¥":{"ha":586,"x_min":0,"x_max":521,"o":"m 0 434 l 0 521 l 195 521 l 195 608 l 130 608 l 130 694 l 65 694 l 65 781 l 0 781 l 0 868 l 130 868 l 130 781 l 195 781 l 195 694 l 326 694 l 326 781 l 391 781 l 391 868 l 521 868 l 521 781 l 456 781 l 456 694 l 391 694 l 391 608 l 326 608 l 326 521 l 521 521 l 521 434 l 326 434 l 326 347 l 521 347 l 521 260 l 326 260 l 326 0 l 195 0 l 195 260 l 0 260 l 0 347 l 195 347 l 195 434 l 0 434 z "},"§":{"ha":586,"x_min":0,"x_max":456,"o":"m 0 0 l 0 87 l 130 87 l 130 0 l 326 0 l 326 87 l 260 87 l 260 174 l 130 174 l 130 260 l 65 260 l 65 347 l 0 347 l 0 521 l 65 521 l 65 608 l 130 608 l 130 694 l 65 694 l 65 781 l 0 781 l 0 868 l 65 868 l 65 955 l 391 955 l 391 868 l 456 868 l 456 781 l 326 781 l 326 868 l 130 868 l 130 781 l 195 781 l 195 694 l 326 694 l 326 608 l 391 608 l 391 521 l 456 521 l 456 347 l 391 347 l 391 260 l 326 260 l 326 174 l 391 174 l 391 87 l 456 87 l 456 0 l 391 0 l 391 -87 l 65 -87 l 65 0 l 0 0 m 260 260 l 260 347 l 326 347 l 326 521 l 260 521 l 260 608 l 195 608 l 195 521 l 130 521 l 130 347 l 195 347 l 195 260 l 260 260 z "},"ª":{"ha":586,"x_min":65,"x_max":456,"o":"m 65 434 l 65 521 l 456 521 l 456 434 l 65 434 m 65 868 l 130 868 l 130 955 l 391 955 l 391 694 l 456 694 l 456 608 l 130 608 l 130 694 l 65 694 l 65 868 m 195 694 l 260 694 l 260 868 l 195 868 l 195 694 z "},"«":{"ha":586,"x_min":0,"x_max":456,"o":"m 0 347 l 0 434 l 65 434 l 65 521 l 130 521 l 130 608 l 260 608 l 260 521 l 195 521 l 195 434 l 130 434 l 130 347 l 195 347 l 195 260 l 260 260 l 260 174 l 130 174 l 130 260 l 65 260 l 65 347 l 0 347 m 260 434 l 260 521 l 326 521 l 326 608 l 456 608 l 456 521 l 391 521 l 391 434 l 326 434 l 326 347 l 391 347 l 391 260 l 456 260 l 456 174 l 326 174 l 326 260 l 260 260 l 260 347 l 195 347 l 195 434 l 260 434 z "},"¬":{"ha":586,"x_min":0,"x_max":456,"o":"m 0 434 l 0 521 l 456 521 l 456 87 l 326 87 l 326 434 l 0 434 z "},"°":{"ha":586,"x_min":65,"x_max":391,"o":"m 65 868 l 130 868 l 130 955 l 326 955 l 326 868 l 391 868 l 391 694 l 326 694 l 326 608 l 130 608 l 130 694 l 65 694 l 65 868 m 195 694 l 260 694 l 260 868 l 195 868 l 195 694 z "},"±":{"ha":586,"x_min":0,"x_max":521,"o":"m 0 0 l 0 87 l 521 87 l 521 0 l 0 0 m 65 434 l 65 521 l 195 521 l 195 694 l 326 694 l 326 521 l 456 521 l 456 434 l 326 434 l 326 260 l 195 260 l 195 434 l 65 434 z "},"²":{"ha":586,"x_min":0,"x_max":326,"o":"m 0 434 l 0 608 l 65 608 l 65 694 l 130 694 l 130 781 l 195 781 l 195 868 l 130 868 l 130 781 l 0 781 l 0 868 l 65 868 l 65 955 l 260 955 l 260 868 l 326 868 l 326 781 l 260 781 l 260 694 l 195 694 l 195 608 l 130 608 l 130 521 l 260 521 l 260 608 l 326 608 l 326 434 l 0 434 z "},"µ":{"ha":586,"x_min":0,"x_max":456,"o":"m 0 -87 l 0 0 l 65 0 l 65 694 l 195 694 l 195 260 l 326 260 l 326 694 l 456 694 l 456 260 l 391 260 l 391 174 l 195 174 l 195 0 l 130 0 l 130 -87 l 0 -87 z "},"¶":{"ha":586,"x_min":0,"x_max":521,"o":"m 521 0 l 391 0 l 391 781 l 326 781 l 326 0 l 195 0 l 195 434 l 65 434 l 65 521 l 0 521 l 0 781 l 65 781 l 65 868 l 521 868 l 521 0 m 130 521 l 195 521 l 195 781 l 130 781 l 130 521 z "},"·":{"ha":586,"x_min":195,"x_max":326,"o":"m 326 347 l 326 260 l 195 260 l 195 347 l 326 347 z "},"º":{"ha":586,"x_min":65,"x_max":391,"o":"m 65 434 l 65 521 l 391 521 l 391 434 l 65 434 m 65 868 l 130 868 l 130 955 l 326 955 l 326 868 l 391 868 l 391 694 l 326 694 l 326 608 l 130 608 l 130 694 l 65 694 l 65 868 m 195 694 l 260 694 l 260 868 l 195 868 l 195 694 z "},"»":{"ha":586,"x_min":0,"x_max":456,"o":"m 0 174 l 0 260 l 65 260 l 65 347 l 130 347 l 130 434 l 65 434 l 65 521 l 0 521 l 0 608 l 130 608 l 130 521 l 195 521 l 195 434 l 260 434 l 260 347 l 195 347 l 195 260 l 130 260 l 130 174 l 0 174 m 260 434 l 260 521 l 195 521 l 195 608 l 326 608 l 326 521 l 391 521 l 391 434 l 456 434 l 456 347 l 391 347 l 391 260 l 326 260 l 326 174 l 195 174 l 195 260 l 260 260 l 260 347 l 326 347 l 326 434 l 260 434 z "},"¼":{"ha":586,"x_min":0,"x_max":456,"o":"m 0 87 l 0 260 l 65 260 l 65 347 l 130 347 l 130 434 l 195 434 l 195 521 l 260 521 l 260 608 l 326 608 l 326 694 l 391 694 l 391 781 l 456 781 l 456 608 l 391 608 l 391 521 l 326 521 l 326 434 l 260 434 l 260 347 l 195 347 l 195 260 l 130 260 l 130 174 l 65 174 l 65 87 l 0 87 m 0 521 l 0 955 l 130 955 l 130 521 l 0 521 m 130 0 l 130 87 l 195 87 l 195 174 l 260 174 l 260 87 l 326 87 l 326 174 l 260 174 l 260 260 l 326 260 l 326 347 l 456 347 l 456 -174 l 326 -174 l 326 0 l 130 0 z "},"½":{"ha":586,"x_min":0,"x_max":521,"o":"m 0 87 l 0 260 l 65 260 l 65 347 l 130 347 l 130 434 l 195 434 l 195 521 l 260 521 l 260 608 l 326 608 l 326 694 l 391 694 l 391 781 l 456 781 l 456 608 l 391 608 l 391 521 l 326 521 l 326 434 l 260 434 l 260 347 l 195 347 l 195 260 l 130 260 l 130 174 l 65 174 l 65 87 l 0 87 m 0 521 l 0 955 l 130 955 l 130 521 l 0 521 m 260 174 l 260 260 l 456 260 l 456 174 l 521 174 l 521 87 l 456 87 l 456 0 l 391 0 l 391 -87 l 521 -87 l 521 -174 l 195 -174 l 195 -87 l 260 -87 l 260 0 l 326 0 l 326 87 l 391 87 l 391 174 l 326 174 l 326 87 l 195 87 l 195 174 l 260 174 z "},"¿":{"ha":586,"x_min":0,"x_max":456,"o":"m 0 87 l 0 347 l 65 347 l 65 434 l 130 434 l 130 608 l 260 608 l 260 434 l 195 434 l 195 347 l 130 347 l 130 87 l 326 87 l 326 260 l 456 260 l 456 87 l 391 87 l 391 0 l 65 0 l 65 87 l 0 87 m 130 868 l 260 868 l 260 694 l 130 694 l 130 868 z "},"Ä":{"ha":586,"x_min":0,"x_max":456,"o":"m 0 0 l 0 521 l 65 521 l 65 608 l 130 608 l 130 694 l 195 694 l 195 781 l 260 781 l 260 694 l 326 694 l 326 608 l 391 608 l 391 521 l 456 521 l 456 0 l 326 0 l 326 260 l 130 260 l 130 0 l 0 0 m 0 868 l 0 955 l 130 955 l 130 868 l 0 868 m 130 347 l 326 347 l 326 521 l 260 521 l 260 608 l 195 608 l 195 521 l 130 521 l 130 347 m 326 955 l 456 955 l 456 868 l 326 868 l 326 955 z "},"Å":{"ha":586,"x_min":0,"x_max":456,"o":"m 0 0 l 0 521 l 65 521 l 65 608 l 130 608 l 130 694 l 326 694 l 326 608 l 391 608 l 391 521 l 456 521 l 456 0 l 326 0 l 326 260 l 130 260 l 130 0 l 0 0 m 130 347 l 326 347 l 326 521 l 260 521 l 260 608 l 195 608 l 195 521 l 130 521 l 130 347 m 130 868 l 65 868 l 65 955 l 130 955 l 130 1042 l 326 1042 l 326 955 l 391 955 l 391 868 l 326 868 l 326 781 l 130 781 l 130 868 m 260 868 l 260 955 l 195 955 l 195 868 l 260 868 z "},"Æ":{"ha":586,"x_min":0,"x_max":456,"o":"m 0 0 l 0 694 l 65 694 l 65 781 l 130 781 l 130 868 l 456 868 l 456 781 l 391 781 l 391 521 l 456 521 l 456 434 l 391 434 l 391 87 l 456 87 l 456 0 l 260 0 l 260 434 l 130 434 l 130 0 l 0 0 m 130 521 l 260 521 l 260 781 l 195 781 l 195 694 l 130 694 l 130 521 z "},"Ç":{"ha":586,"x_min":0,"x_max":456,"o":"m 0 260 l 0 694 l 65 694 l 65 781 l 130 781 l 130 868 l 391 868 l 391 781 l 456 781 l 456 608 l 391 608 l 391 694 l 326 694 l 326 781 l 195 781 l 195 694 l 130 694 l 130 260 l 195 260 l 195 174 l 326 174 l 326 260 l 391 260 l 391 347 l 456 347 l 456 174 l 391 174 l 391 0 l 456 0 l 456 -87 l 391 -87 l 391 -174 l 65 -174 l 65 -87 l 326 -87 l 326 0 l 260 0 l 260 87 l 130 87 l 130 174 l 65 174 l 65 260 l 0 260 z "},"É":{"ha":586,"x_min":0,"x_max":456,"o":"m 0 0 l 0 87 l 65 87 l 65 608 l 0 608 l 0 694 l 456 694 l 456 521 l 326 521 l 326 608 l 195 608 l 195 434 l 391 434 l 391 347 l 195 347 l 195 87 l 326 87 l 326 174 l 456 174 l 456 0 l 0 0 m 130 868 l 130 955 l 195 955 l 195 1042 l 326 1042 l 326 955 l 260 955 l 260 868 l 195 868 l 195 781 l 65 781 l 65 868 l 130 868 z "},"Ñ":{"ha":586,"x_min":0,"x_max":456,"o":"m 0 0 l 0 781 l 130 781 l 130 694 l 195 694 l 195 608 l 260 608 l 260 521 l 326 521 l 326 781 l 456 781 l 456 0 l 326 0 l 326 260 l 260 260 l 260 347 l 195 347 l 195 434 l 130 434 l 130 0 l 0 0 m 0 868 l 0 955 l 65 955 l 65 1042 l 260 1042 l 260 955 l 326 955 l 326 1042 l 456 1042 l 456 955 l 391 955 l 391 868 l 195 868 l 195 955 l 130 955 l 130 868 l 0 868 z "},"Ö":{"ha":586,"x_min":0,"x_max":456,"o":"m 0 87 l 0 694 l 65 694 l 65 781 l 391 781 l 391 694 l 456 694 l 456 87 l 391 87 l 391 0 l 65 0 l 65 87 l 0 87 m 0 868 l 0 955 l 130 955 l 130 868 l 0 868 m 130 87 l 326 87 l 326 694 l 130 694 l 130 87 m 326 955 l 456 955 l 456 868 l 326 868 l 326 955 z "},"Ü":{"ha":586,"x_min":0,"x_max":456,"o":"m 0 87 l 0 781 l 130 781 l 130 87 l 326 87 l 326 781 l 456 781 l 456 87 l 391 87 l 391 0 l 65 0 l 65 87 l 0 87 m 0 868 l 0 955 l 130 955 l 130 868 l 0 868 m 326 955 l 456 955 l 456 868 l 326 868 l 326 955 z "},"ß":{"ha":586,"x_min":0,"x_max":456,"o":"m 0 0 l 0 781 l 65 781 l 65 868 l 326 868 l 326 781 l 391 781 l 391 521 l 326 521 l 326 434 l 391 434 l 391 347 l 456 347 l 456 87 l 391 87 l 391 0 l 260 0 l 260 87 l 326 87 l 326 347 l 260 347 l 260 434 l 195 434 l 195 521 l 260 521 l 260 781 l 130 781 l 130 0 l 0 0 z "},"à":{"ha":586,"x_min":0,"x_max":456,"o":"m 0 87 l 0 347 l 65 347 l 65 434 l 260 434 l 260 521 l 65 521 l 65 608 l 326 608 l 326 521 l 391 521 l 391 87 l 456 87 l 456 0 l 326 0 l 326 87 l 260 87 l 260 347 l 130 347 l 130 87 l 260 87 l 260 0 l 65 0 l 65 87 l 0 87 m 130 868 l 65 868 l 65 955 l 195 955 l 195 868 l 260 868 l 260 781 l 326 781 l 326 694 l 195 694 l 195 781 l 130 781 l 130 868 z "},"á":{"ha":586,"x_min":0,"x_max":456,"o":"m 0 87 l 0 347 l 65 347 l 65 434 l 260 434 l 260 521 l 65 521 l 65 608 l 326 608 l 326 521 l 391 521 l 391 87 l 456 87 l 456 0 l 326 0 l 326 87 l 260 87 l 260 347 l 130 347 l 130 87 l 260 87 l 260 0 l 65 0 l 65 87 l 0 87 m 130 781 l 130 868 l 195 868 l 195 955 l 326 955 l 326 868 l 260 868 l 260 781 l 195 781 l 195 694 l 65 694 l 65 781 l 130 781 z "},"â":{"ha":586,"x_min":0,"x_max":456,"o":"m 0 87 l 0 347 l 65 347 l 65 434 l 260 434 l 260 521 l 65 521 l 65 608 l 326 608 l 326 521 l 391 521 l 391 87 l 456 87 l 456 0 l 326 0 l 326 87 l 260 87 l 260 347 l 130 347 l 130 87 l 260 87 l 260 0 l 65 0 l 65 87 l 0 87 m 130 781 l 130 868 l 195 868 l 195 955 l 260 955 l 260 868 l 326 868 l 326 781 l 391 781 l 391 694 l 260 694 l 260 781 l 195 781 l 195 694 l 65 694 l 65 781 l 130 781 z "},"ä":{"ha":586,"x_min":0,"x_max":456,"o":"m 0 87 l 0 347 l 65 347 l 65 434 l 260 434 l 260 521 l 65 521 l 65 608 l 326 608 l 326 521 l 391 521 l 391 87 l 456 87 l 456 0 l 326 0 l 326 87 l 260 87 l 260 347 l 130 347 l 130 87 l 260 87 l 260 0 l 65 0 l 65 87 l 0 87 m 0 781 l 0 868 l 130 868 l 130 781 l 0 781 m 260 781 l 260 868 l 391 868 l 391 781 l 260 781 z "},"å":{"ha":586,"x_min":0,"x_max":456,"o":"m 0 87 l 0 347 l 65 347 l 65 434 l 260 434 l 260 521 l 65 521 l 65 608 l 326 608 l 326 521 l 391 521 l 391 87 l 456 87 l 456 0 l 326 0 l 326 87 l 260 87 l 260 347 l 130 347 l 130 87 l 260 87 l 260 0 l 65 0 l 65 87 l 0 87 m 130 868 l 130 955 l 326 955 l 326 868 l 391 868 l 391 781 l 326 781 l 326 694 l 130 694 l 130 781 l 65 781 l 65 868 l 130 868 m 260 868 l 195 868 l 195 781 l 260 781 l 260 868 z "},"æ":{"ha":586,"x_min":0,"x_max":521,"o":"m 0 87 l 0 260 l 65 260 l 65 347 l 195 347 l 195 434 l 130 434 l 130 521 l 65 521 l 65 608 l 195 608 l 195 521 l 260 521 l 260 608 l 456 608 l 456 521 l 521 521 l 521 347 l 456 347 l 456 260 l 326 260 l 326 174 l 391 174 l 391 87 l 521 87 l 521 0 l 326 0 l 326 87 l 260 87 l 260 0 l 65 0 l 65 87 l 0 87 m 130 87 l 195 87 l 195 260 l 130 260 l 130 87 m 391 347 l 391 521 l 326 521 l 326 347 l 391 347 z "},"ç":{"ha":586,"x_min":65,"x_max":456,"o":"m 130 174 l 130 260 l 65 260 l 65 608 l 130 608 l 130 694 l 391 694 l 391 608 l 456 608 l 456 521 l 326 521 l 326 608 l 195 608 l 195 260 l 326 260 l 326 347 l 456 347 l 456 260 l 391 260 l 391 87 l 456 87 l 456 0 l 391 0 l 391 -87 l 130 -87 l 130 0 l 326 0 l 326 87 l 260 87 l 260 174 l 130 174 z "},"è":{"ha":586,"x_min":0,"x_max":456,"o":"m 0 87 l 0 521 l 65 521 l 65 608 l 391 608 l 391 521 l 456 521 l 456 347 l 130 347 l 130 87 l 326 87 l 326 174 l 456 174 l 456 87 l 391 87 l 391 0 l 65 0 l 65 87 l 0 87 m 130 434 l 326 434 l 326 521 l 130 521 l 130 434 m 130 868 l 65 868 l 65 955 l 195 955 l 195 868 l 260 868 l 260 781 l 326 781 l 326 694 l 195 694 l 195 781 l 130 781 l 130 868 z "},"é":{"ha":586,"x_min":0,"x_max":456,"o":"m 0 87 l 0 521 l 65 521 l 65 608 l 391 608 l 391 521 l 456 521 l 456 347 l 130 347 l 130 87 l 326 87 l 326 174 l 456 174 l 456 87 l 391 87 l 391 0 l 65 0 l 65 87 l 0 87 m 130 434 l 326 434 l 326 521 l 130 521 l 130 434 m 130 694 l 130 781 l 195 781 l 195 868 l 260 868 l 260 955 l 391 955 l 391 868 l 326 868 l 326 781 l 260 781 l 260 694 l 130 694 z "},"ê":{"ha":586,"x_min":0,"x_max":456,"o":"m 0 87 l 0 521 l 65 521 l 65 608 l 391 608 l 391 521 l 456 521 l 456 347 l 130 347 l 130 87 l 326 87 l 326 174 l 456 174 l 456 87 l 391 87 l 391 0 l 65 0 l 65 87 l 0 87 m 130 434 l 326 434 l 326 521 l 130 521 l 130 434 m 130 781 l 130 868 l 195 868 l 195 955 l 260 955 l 260 868 l 326 868 l 326 781 l 391 781 l 391 694 l 260 694 l 260 781 l 195 781 l 195 694 l 65 694 l 65 781 l 130 781 z "},"ë":{"ha":586,"x_min":0,"x_max":456,"o":"m 0 87 l 0 521 l 65 521 l 65 608 l 391 608 l 391 521 l 456 521 l 456 347 l 130 347 l 130 87 l 326 87 l 326 174 l 456 174 l 456 87 l 391 87 l 391 0 l 65 0 l 65 87 l 0 87 m 0 781 l 0 868 l 130 868 l 130 781 l 0 781 m 130 434 l 326 434 l 326 521 l 130 521 l 130 434 m 326 781 l 326 868 l 456 868 l 456 781 l 326 781 z "},"ì":{"ha":586,"x_min":65,"x_max":391,"o":"m 65 955 l 195 955 l 195 868 l 260 868 l 260 781 l 326 781 l 326 694 l 195 694 l 195 781 l 130 781 l 130 868 l 65 868 l 65 955 m 130 0 l 130 87 l 195 87 l 195 521 l 130 521 l 130 608 l 326 608 l 326 87 l 391 87 l 391 0 l 130 0 z "},"í":{"ha":586,"x_min":130,"x_max":391,"o":"m 130 0 l 130 87 l 195 87 l 195 521 l 130 521 l 130 608 l 326 608 l 326 87 l 391 87 l 391 0 l 130 0 m 130 694 l 130 781 l 195 781 l 195 868 l 260 868 l 260 955 l 391 955 l 391 868 l 326 868 l 326 781 l 260 781 l 260 694 l 130 694 z "},"î":{"ha":586,"x_min":65,"x_max":456,"o":"m 130 0 l 130 87 l 195 87 l 195 521 l 130 521 l 130 608 l 326 608 l 326 87 l 391 87 l 391 0 l 130 0 m 130 781 l 130 868 l 195 868 l 195 955 l 326 955 l 326 868 l 391 868 l 391 781 l 456 781 l 456 694 l 326 694 l 326 781 l 195 781 l 195 694 l 65 694 l 65 781 l 130 781 z "},"ï":{"ha":586,"x_min":65,"x_max":456,"o":"m 65 781 l 65 868 l 195 868 l 195 781 l 65 781 m 130 0 l 130 87 l 195 87 l 195 521 l 130 521 l 130 608 l 326 608 l 326 87 l 391 87 l 391 0 l 130 0 m 326 781 l 326 868 l 456 868 l 456 781 l 326 781 z "},"ñ":{"ha":586,"x_min":0,"x_max":456,"o":"m 0 521 l 0 608 l 130 608 l 130 521 l 195 521 l 195 0 l 65 0 l 65 521 l 0 521 m 0 694 l 0 781 l 65 781 l 65 868 l 260 868 l 260 781 l 326 781 l 326 868 l 456 868 l 456 781 l 391 781 l 391 694 l 195 694 l 195 781 l 130 781 l 130 694 l 0 694 m 391 608 l 391 521 l 456 521 l 456 0 l 326 0 l 326 521 l 195 521 l 195 608 l 391 608 z "},"ò":{"ha":586,"x_min":0,"x_max":456,"o":"m 0 87 l 0 521 l 65 521 l 65 608 l 391 608 l 391 521 l 456 521 l 456 87 l 391 87 l 391 0 l 65 0 l 65 87 l 0 87 m 130 87 l 326 87 l 326 521 l 130 521 l 130 87 m 130 868 l 65 868 l 65 955 l 195 955 l 195 868 l 260 868 l 260 781 l 326 781 l 326 694 l 195 694 l 195 781 l 130 781 l 130 868 z "},"ó":{"ha":586,"x_min":0,"x_max":456,"o":"m 0 87 l 0 521 l 65 521 l 65 608 l 391 608 l 391 521 l 456 521 l 456 87 l 391 87 l 391 0 l 65 0 l 65 87 l 0 87 m 130 87 l 326 87 l 326 521 l 130 521 l 130 87 m 130 781 l 130 868 l 195 868 l 195 955 l 326 955 l 326 868 l 260 868 l 260 781 l 195 781 l 195 694 l 65 694 l 65 781 l 130 781 z "},"ô":{"ha":586,"x_min":0,"x_max":456,"o":"m 0 87 l 0 521 l 65 521 l 65 608 l 391 608 l 391 521 l 456 521 l 456 87 l 391 87 l 391 0 l 65 0 l 65 87 l 0 87 m 130 87 l 326 87 l 326 521 l 130 521 l 130 87 m 130 781 l 130 868 l 195 868 l 195 955 l 260 955 l 260 868 l 326 868 l 326 781 l 391 781 l 391 694 l 260 694 l 260 781 l 195 781 l 195 694 l 65 694 l 65 781 l 130 781 z "},"ö":{"ha":586,"x_min":0,"x_max":456,"o":"m 0 87 l 0 521 l 65 521 l 65 608 l 391 608 l 391 521 l 456 521 l 456 87 l 391 87 l 391 0 l 65 0 l 65 87 l 0 87 m 0 781 l 0 868 l 130 868 l 130 781 l 0 781 m 130 87 l 326 87 l 326 521 l 130 521 l 130 87 m 326 781 l 326 868 l 456 868 l 456 781 l 326 781 z "},"÷":{"ha":586,"x_min":65,"x_max":456,"o":"m 326 87 l 195 87 l 195 260 l 326 260 l 326 87 m 65 347 l 65 434 l 456 434 l 456 347 l 65 347 m 326 521 l 195 521 l 195 694 l 326 694 l 326 521 z "},"ù":{"ha":586,"x_min":0,"x_max":456,"o":"m 0 87 l 0 608 l 130 608 l 130 87 l 260 87 l 260 0 l 65 0 l 65 87 l 0 87 m 130 868 l 65 868 l 65 955 l 195 955 l 195 868 l 260 868 l 260 781 l 326 781 l 326 694 l 195 694 l 195 781 l 130 781 l 130 868 m 260 87 l 260 608 l 391 608 l 391 87 l 456 87 l 456 0 l 326 0 l 326 87 l 260 87 z "},"ú":{"ha":586,"x_min":0,"x_max":456,"o":"m 0 87 l 0 608 l 130 608 l 130 87 l 260 87 l 260 0 l 65 0 l 65 87 l 0 87 m 130 781 l 130 868 l 195 868 l 195 955 l 326 955 l 326 868 l 260 868 l 260 781 l 195 781 l 195 694 l 65 694 l 65 781 l 130 781 m 260 87 l 260 608 l 391 608 l 391 87 l 456 87 l 456 0 l 326 0 l 326 87 l 260 87 z "},"û":{"ha":586,"x_min":0,"x_max":456,"o":"m 0 87 l 0 608 l 130 608 l 130 87 l 260 87 l 260 0 l 65 0 l 65 87 l 0 87 m 0 694 l 0 781 l 65 781 l 65 868 l 130 868 l 130 955 l 260 955 l 260 868 l 326 868 l 326 781 l 391 781 l 391 694 l 260 694 l 260 781 l 130 781 l 130 694 l 0 694 m 260 87 l 260 608 l 391 608 l 391 87 l 456 87 l 456 0 l 326 0 l 326 87 l 260 87 z "},"ü":{"ha":586,"x_min":0,"x_max":456,"o":"m 0 87 l 0 608 l 130 608 l 130 87 l 260 87 l 260 0 l 65 0 l 65 87 l 0 87 m 0 781 l 0 868 l 130 868 l 130 781 l 0 781 m 260 87 l 260 608 l 391 608 l 391 87 l 456 87 l 456 0 l 326 0 l 326 87 l 260 87 m 260 781 l 260 868 l 391 868 l 391 781 l 260 781 z "},"ÿ":{"ha":586,"x_min":0,"x_max":456,"o":"m 0 87 l 0 608 l 130 608 l 130 87 l 326 87 l 326 608 l 456 608 l 456 -87 l 391 -87 l 391 -174 l 326 -174 l 326 -260 l 65 -260 l 65 -174 l 260 -174 l 260 -87 l 326 -87 l 326 0 l 65 0 l 65 87 l 0 87 m 0 781 l 0 868 l 130 868 l 130 781 l 0 781 m 326 781 l 326 868 l 456 868 l 456 781 l 326 781 z "},"ƒ":{"ha":586,"x_min":0,"x_max":521,"o":"m 0 -87 l 0 0 l 130 0 l 130 -87 l 195 -87 l 195 434 l 65 434 l 65 521 l 195 521 l 195 868 l 260 868 l 260 955 l 456 955 l 456 868 l 521 868 l 521 781 l 391 781 l 391 868 l 326 868 l 326 521 l 456 521 l 456 434 l 326 434 l 326 -87 l 260 -87 l 260 -174 l 65 -174 l 65 -87 l 0 -87 z "},"Γ":{"ha":586,"x_min":0,"x_max":456,"o":"m 0 0 l 0 868 l 456 868 l 456 608 l 326 608 l 326 781 l 130 781 l 130 0 l 0 0 z "},"Θ":{"ha":586,"x_min":0,"x_max":456,"o":"m 0 174 l 0 608 l 65 608 l 65 694 l 130 694 l 130 781 l 326 781 l 326 694 l 391 694 l 391 608 l 456 608 l 456 174 l 391 174 l 391 87 l 326 87 l 326 0 l 130 0 l 130 87 l 65 87 l 65 174 l 0 174 m 130 174 l 195 174 l 195 87 l 260 87 l 260 174 l 326 174 l 326 347 l 130 347 l 130 174 m 130 434 l 326 434 l 326 608 l 260 608 l 260 694 l 195 694 l 195 608 l 130 608 l 130 434 z "},"Σ":{"ha":586,"x_min":0,"x_max":456,"o":"m 0 174 l 65 174 l 65 260 l 130 260 l 130 347 l 195 347 l 195 434 l 130 434 l 130 521 l 65 521 l 65 608 l 0 608 l 0 781 l 456 781 l 456 608 l 326 608 l 326 694 l 130 694 l 130 608 l 195 608 l 195 521 l 260 521 l 260 434 l 326 434 l 326 347 l 260 347 l 260 260 l 195 260 l 195 174 l 130 174 l 130 87 l 326 87 l 326 174 l 456 174 l 456 0 l 0 0 l 0 174 z "},"Φ":{"ha":586,"x_min":65,"x_max":456,"o":"m 130 174 l 130 260 l 65 260 l 65 521 l 130 521 l 130 608 l 195 608 l 195 694 l 65 694 l 65 781 l 456 781 l 456 694 l 326 694 l 326 608 l 391 608 l 391 521 l 456 521 l 456 260 l 391 260 l 391 174 l 326 174 l 326 87 l 456 87 l 456 0 l 65 0 l 65 87 l 195 87 l 195 174 l 130 174 m 195 260 l 326 260 l 326 521 l 195 521 l 195 260 z "},"Ω":{"ha":586,"x_min":0,"x_max":456,"o":"m 0 0 l 0 87 l 65 87 l 65 434 l 0 434 l 0 694 l 65 694 l 65 781 l 130 781 l 130 868 l 326 868 l 326 781 l 391 781 l 391 694 l 456 694 l 456 434 l 391 434 l 391 87 l 456 87 l 456 0 l 260 0 l 260 434 l 326 434 l 326 694 l 260 694 l 260 781 l 195 781 l 195 694 l 130 694 l 130 434 l 195 434 l 195 0 l 0 0 z "},"α":{"ha":586,"x_min":0,"x_max":456,"o":"m 0 87 l 0 521 l 65 521 l 65 608 l 260 608 l 260 521 l 326 521 l 326 608 l 456 608 l 456 521 l 391 521 l 391 434 l 326 434 l 326 174 l 391 174 l 391 87 l 456 87 l 456 0 l 326 0 l 326 87 l 260 87 l 260 0 l 65 0 l 65 87 l 0 87 m 130 87 l 195 87 l 195 521 l 130 521 l 130 87 z "},"δ":{"ha":586,"x_min":65,"x_max":456,"o":"m 130 87 l 65 87 l 65 434 l 130 434 l 130 521 l 260 521 l 260 608 l 195 608 l 195 694 l 130 694 l 130 781 l 195 781 l 195 868 l 456 868 l 456 781 l 260 781 l 260 694 l 326 694 l 326 608 l 391 608 l 391 521 l 456 521 l 456 87 l 391 87 l 391 0 l 130 0 l 130 87 m 195 87 l 326 87 l 326 434 l 195 434 l 195 87 z "},"ε":{"ha":586,"x_min":65,"x_max":391,"o":"m 65 174 l 65 694 l 130 694 l 130 781 l 195 781 l 195 868 l 391 868 l 391 781 l 260 781 l 260 694 l 195 694 l 195 521 l 391 521 l 391 434 l 195 434 l 195 174 l 260 174 l 260 87 l 391 87 l 391 0 l 195 0 l 195 87 l 130 87 l 130 174 l 65 174 z "},"π":{"ha":586,"x_min":0,"x_max":456,"o":"m 260 0 l 260 608 l 195 608 l 195 0 l 65 0 l 65 608 l 0 608 l 0 694 l 456 694 l 456 608 l 391 608 l 391 0 l 260 0 z "},"σ":{"ha":586,"x_min":0,"x_max":456,"o":"m 0 87 l 0 521 l 65 521 l 65 608 l 456 608 l 456 521 l 326 521 l 326 87 l 260 87 l 260 0 l 65 0 l 65 87 l 0 87 m 130 87 l 195 87 l 195 521 l 130 521 l 130 87 z "},"τ":{"ha":586,"x_min":0,"x_max":456,"o":"m 0 521 l 0 608 l 65 608 l 65 694 l 260 694 l 260 608 l 326 608 l 326 694 l 456 694 l 456 608 l 391 608 l 391 521 l 326 521 l 326 0 l 195 0 l 195 608 l 130 608 l 130 521 l 0 521 z "},"φ":{"ha":586,"x_min":0,"x_max":521,"o":"m 0 0 l 0 87 l 65 87 l 65 260 l 0 260 l 0 521 l 65 521 l 65 608 l 326 608 l 326 694 l 391 694 l 391 781 l 521 781 l 521 694 l 456 694 l 456 521 l 521 521 l 521 260 l 456 260 l 456 174 l 195 174 l 195 87 l 130 87 l 130 0 l 0 0 m 130 347 l 195 347 l 195 521 l 130 521 l 130 347 m 260 347 l 260 260 l 391 260 l 391 521 l 326 521 l 326 347 l 260 347 z "},"•":{"ha":586,"x_min":130,"x_max":391,"o":"m 326 174 l 195 174 l 195 260 l 130 260 l 130 434 l 195 434 l 195 521 l 326 521 l 326 434 l 391 434 l 391 260 l 326 260 l 326 174 z "},"‼":{"ha":586,"x_min":65,"x_max":456,"o":"m 65 174 l 195 174 l 195 0 l 65 0 l 65 174 m 65 260 l 65 868 l 195 868 l 195 260 l 65 260 m 326 174 l 456 174 l 456 0 l 326 0 l 326 174 m 326 260 l 326 868 l 456 868 l 456 260 l 326 260 z "},"ⁿ":{"ha":586,"x_min":0,"x_max":391,"o":"m 0 868 l 0 955 l 130 955 l 130 868 l 195 868 l 195 434 l 65 434 l 65 868 l 0 868 m 195 955 l 326 955 l 326 868 l 391 868 l 391 434 l 260 434 l 260 868 l 195 868 l 195 955 z "},"₧":{"ha":586,"x_min":0,"x_max":521,"o":"m 0 0 l 0 87 l 65 87 l 65 868 l 0 868 l 0 955 l 391 955 l 391 868 l 456 868 l 456 694 l 391 694 l 391 608 l 195 608 l 195 87 l 260 87 l 260 0 l 0 0 m 260 347 l 260 434 l 326 434 l 326 521 l 391 521 l 391 608 l 456 608 l 456 434 l 521 434 l 521 347 l 456 347 l 456 87 l 521 87 l 521 0 l 391 0 l 391 87 l 326 87 l 326 347 l 260 347 m 195 868 l 195 694 l 326 694 l 326 868 l 195 868 z "},"←":{"ha":586,"x_min":0,"x_max":456,"o":"m 0 347 l 0 434 l 65 434 l 65 521 l 130 521 l 130 608 l 260 608 l 260 521 l 195 521 l 195 434 l 456 434 l 456 347 l 195 347 l 195 260 l 260 260 l 260 174 l 130 174 l 130 260 l 65 260 l 65 347 l 0 347 z "},"↑":{"ha":586,"x_min":65,"x_max":456,"o":"m 65 608 l 65 694 l 130 694 l 130 781 l 195 781 l 195 868 l 326 868 l 326 781 l 391 781 l 391 694 l 456 694 l 456 608 l 326 608 l 326 0 l 195 0 l 195 608 l 65 608 z "},"→":{"ha":586,"x_min":0,"x_max":456,"o":"m 0 347 l 0 434 l 260 434 l 260 521 l 195 521 l 195 608 l 326 608 l 326 521 l 391 521 l 391 434 l 456 434 l 456 347 l 391 347 l 391 260 l 326 260 l 326 174 l 195 174 l 195 260 l 260 260 l 260 347 l 0 347 z "},"↓":{"ha":586,"x_min":65,"x_max":456,"o":"m 65 174 l 65 260 l 195 260 l 195 868 l 326 868 l 326 260 l 456 260 l 456 174 l 391 174 l 391 87 l 326 87 l 326 0 l 195 0 l 195 87 l 130 87 l 130 174 l 65 174 z "},"↔":{"ha":586,"x_min":0,"x_max":521,"o":"m 0 347 l 0 434 l 65 434 l 65 521 l 130 521 l 130 608 l 195 608 l 195 434 l 326 434 l 326 608 l 391 608 l 391 521 l 456 521 l 456 434 l 521 434 l 521 347 l 456 347 l 456 260 l 391 260 l 391 174 l 326 174 l 326 347 l 195 347 l 195 174 l 130 174 l 130 260 l 65 260 l 65 347 l 0 347 z "},"↕":{"ha":586,"x_min":65,"x_max":456,"o":"m 130 174 l 130 260 l 65 260 l 65 347 l 195 347 l 195 608 l 65 608 l 65 694 l 130 694 l 130 781 l 195 781 l 195 868 l 326 868 l 326 781 l 391 781 l 391 694 l 456 694 l 456 608 l 326 608 l 326 347 l 456 347 l 456 260 l 391 260 l 391 174 l 326 174 l 326 87 l 195 87 l 195 174 l 130 174 z "},"↨":{"ha":586,"x_min":65,"x_max":456,"o":"m 130 174 l 130 260 l 65 260 l 65 347 l 195 347 l 195 608 l 65 608 l 65 694 l 130 694 l 130 781 l 195 781 l 195 868 l 326 868 l 326 781 l 391 781 l 391 694 l 456 694 l 456 608 l 326 608 l 326 347 l 456 347 l 456 260 l 391 260 l 391 174 l 326 174 l 326 87 l 456 87 l 456 0 l 65 0 l 65 87 l 195 87 l 195 174 l 130 174 z "},"∙":{"ha":586,"x_min":195,"x_max":326,"o":"m 326 434 l 326 260 l 195 260 l 195 434 l 326 434 z "},"√":{"ha":586,"x_min":0,"x_max":521,"o":"m 0 347 l 0 434 l 195 434 l 195 174 l 260 174 l 260 955 l 521 955 l 521 868 l 391 868 l 391 0 l 195 0 l 195 87 l 130 87 l 130 174 l 65 174 l 65 347 l 0 347 z "},"∞":{"ha":586,"x_min":0,"x_max":521,"o":"m 0 260 l 0 521 l 65 521 l 65 608 l 456 608 l 456 521 l 521 521 l 521 260 l 456 260 l 456 174 l 65 174 l 65 260 l 0 260 m 130 260 l 195 260 l 195 521 l 130 521 l 130 260 m 326 260 l 391 260 l 391 521 l 326 521 l 326 260 z "},"∟":{"ha":586,"x_min":0,"x_max":456,"o":"m 0 174 l 0 521 l 130 521 l 130 260 l 456 260 l 456 174 l 0 174 z "},"∩":{"ha":586,"x_min":0,"x_max":456,"o":"m 0 0 l 0 694 l 65 694 l 65 781 l 391 781 l 391 694 l 456 694 l 456 0 l 326 0 l 326 694 l 130 694 l 130 0 l 0 0 z "},"≈":{"ha":586,"x_min":0,"x_max":456,"o":"m 0 174 l 0 260 l 65 260 l 65 347 l 260 347 l 260 260 l 326 260 l 326 347 l 456 347 l 456 260 l 391 260 l 391 174 l 195 174 l 195 260 l 130 260 l 130 174 l 0 174 m 0 434 l 0 521 l 65 521 l 65 608 l 260 608 l 260 521 l 326 521 l 326 608 l 456 608 l 456 521 l 391 521 l 391 434 l 195 434 l 195 521 l 130 521 l 130 434 l 0 434 z "},"≡":{"ha":586,"x_min":0,"x_max":456,"o":"m 0 87 l 0 174 l 456 174 l 456 87 l 0 87 m 0 347 l 0 434 l 456 434 l 456 347 l 0 347 m 0 608 l 0 694 l 456 694 l 456 608 l 0 608 z "},"≤":{"ha":586,"x_min":65,"x_max":456,"o":"m 130 434 l 65 434 l 65 521 l 130 521 l 130 608 l 195 608 l 195 694 l 260 694 l 260 781 l 391 781 l 391 694 l 326 694 l 326 608 l 260 608 l 260 521 l 195 521 l 195 434 l 260 434 l 260 347 l 326 347 l 326 260 l 391 260 l 391 174 l 260 174 l 260 260 l 195 260 l 195 347 l 130 347 l 130 434 m 65 0 l 65 87 l 456 87 l 456 0 l 65 0 z "},"≥":{"ha":586,"x_min":65,"x_max":456,"o":"m 130 174 l 130 260 l 195 260 l 195 347 l 260 347 l 260 434 l 326 434 l 326 521 l 260 521 l 260 608 l 195 608 l 195 694 l 130 694 l 130 781 l 260 781 l 260 694 l 326 694 l 326 608 l 391 608 l 391 521 l 456 521 l 456 434 l 391 434 l 391 347 l 326 347 l 326 260 l 260 260 l 260 174 l 130 174 m 65 0 l 65 87 l 456 87 l 456 0 l 65 0 z "},"⌂":{"ha":586,"x_min":0,"x_max":456,"o":"m 0 87 l 0 434 l 65 434 l 65 521 l 130 521 l 130 608 l 195 608 l 195 694 l 260 694 l 260 608 l 326 608 l 326 521 l 391 521 l 391 434 l 456 434 l 456 87 l 0 87 m 130 174 l 326 174 l 326 434 l 260 434 l 260 521 l 195 521 l 195 434 l 130 434 l 130 174 z "},"⌐":{"ha":586,"x_min":0,"x_max":456,"o":"m 0 87 l 0 521 l 456 521 l 456 434 l 130 434 l 130 87 l 0 87 z "},"⌠":{"ha":586,"x_min":195,"x_max":521,"o":"m 521 608 l 391 608 l 391 781 l 326 781 l 326 -347 l 195 -347 l 195 781 l 260 781 l 260 868 l 456 868 l 456 781 l 521 781 l 521 608 z "},"⌡":{"ha":586,"x_min":0,"x_max":326,"o":"m 0 87 l 0 347 l 130 347 l 130 87 l 195 87 l 195 1042 l 326 1042 l 326 87 l 260 87 l 260 0 l 65 0 l 65 87 l 0 87 z "},"─":{"ha":586,"x_min":0,"x_max":586,"o":"m 0 347 l 0 434 l 586 434 l 586 347 l 0 347 z "},"│":{"ha":586,"x_min":195,"x_max":326,"o":"m 326 1042 l 326 -347 l 195 -347 l 195 1042 l 326 1042 z "},"┌":{"ha":586,"x_min":195,"x_max":586,"o":"m 586 434 l 586 347 l 326 347 l 326 -347 l 195 -347 l 195 434 l 586 434 z "},"┐":{"ha":586,"x_min":0,"x_max":326,"o":"m 0 347 l 0 434 l 326 434 l 326 -347 l 195 -347 l 195 347 l 0 347 z "},"└":{"ha":586,"x_min":195,"x_max":586,"o":"m 326 1042 l 326 434 l 586 434 l 586 347 l 195 347 l 195 1042 l 326 1042 z "},"┘":{"ha":586,"x_min":0,"x_max":326,"o":"m 326 1042 l 326 347 l 0 347 l 0 434 l 195 434 l 195 1042 l 326 1042 z "},"├":{"ha":586,"x_min":195,"x_max":586,"o":"m 326 1042 l 326 434 l 586 434 l 586 347 l 326 347 l 326 -347 l 195 -347 l 195 1042 l 326 1042 z "},"┤":{"ha":586,"x_min":0,"x_max":326,"o":"m 326 1042 l 326 -347 l 195 -347 l 195 347 l 0 347 l 0 434 l 195 434 l 195 1042 l 326 1042 z "},"┬":{"ha":586,"x_min":0,"x_max":586,"o":"m 0 347 l 0 434 l 586 434 l 586 347 l 326 347 l 326 -347 l 195 -347 l 195 347 l 0 347 z "},"┴":{"ha":586,"x_min":0,"x_max":586,"o":"m 326 1042 l 326 434 l 586 434 l 586 347 l 0 347 l 0 434 l 195 434 l 195 1042 l 326 1042 z "},"┼":{"ha":586,"x_min":0,"x_max":586,"o":"m 326 1042 l 326 434 l 586 434 l 586 347 l 326 347 l 326 -347 l 195 -347 l 195 347 l 0 347 l 0 434 l 195 434 l 195 1042 l 326 1042 z "},"═":{"ha":586,"x_min":0,"x_max":586,"o":"m 0 347 l 0 434 l 586 434 l 586 347 l 0 347 m 0 521 l 0 608 l 586 608 l 586 521 l 0 521 z "},"║":{"ha":586,"x_min":130,"x_max":456,"o":"m 326 1042 l 456 1042 l 456 -347 l 326 -347 l 326 1042 m 260 -347 l 130 -347 l 130 1042 l 260 1042 l 260 -347 z "},"╒":{"ha":586,"x_min":195,"x_max":586,"o":"m 586 434 l 586 347 l 326 347 l 326 -347 l 195 -347 l 195 608 l 586 608 l 586 521 l 326 521 l 326 434 l 586 434 z "},"╓":{"ha":586,"x_min":130,"x_max":586,"o":"m 260 347 l 260 -347 l 130 -347 l 130 434 l 586 434 l 586 347 l 456 347 l 456 -347 l 326 -347 l 326 347 l 260 347 z "},"╔":{"ha":586,"x_min":130,"x_max":586,"o":"m 260 -347 l 130 -347 l 130 608 l 586 608 l 586 521 l 260 521 l 260 -347 m 586 434 l 586 347 l 456 347 l 456 -347 l 326 -347 l 326 434 l 586 434 z "},"╕":{"ha":586,"x_min":0,"x_max":326,"o":"m 0 347 l 0 434 l 195 434 l 195 521 l 0 521 l 0 608 l 326 608 l 326 -347 l 195 -347 l 195 347 l 0 347 z "},"╖":{"ha":586,"x_min":0,"x_max":456,"o":"m 0 347 l 0 434 l 456 434 l 456 -347 l 326 -347 l 326 347 l 260 347 l 260 -347 l 130 -347 l 130 347 l 0 347 z "},"╗":{"ha":586,"x_min":0,"x_max":456,"o":"m 0 347 l 0 434 l 260 434 l 260 -347 l 130 -347 l 130 347 l 0 347 m 0 521 l 0 608 l 456 608 l 456 -347 l 326 -347 l 326 521 l 0 521 z "},"╘":{"ha":586,"x_min":195,"x_max":586,"o":"m 326 1042 l 326 608 l 586 608 l 586 521 l 326 521 l 326 434 l 586 434 l 586 347 l 195 347 l 195 1042 l 326 1042 z "},"╙":{"ha":586,"x_min":130,"x_max":586,"o":"m 326 1042 l 456 1042 l 456 434 l 586 434 l 586 347 l 130 347 l 130 1042 l 260 1042 l 260 434 l 326 434 l 326 1042 z "},"╚":{"ha":586,"x_min":130,"x_max":586,"o":"m 326 1042 l 456 1042 l 456 608 l 586 608 l 586 521 l 326 521 l 326 1042 m 260 434 l 586 434 l 586 347 l 130 347 l 130 1042 l 260 1042 l 260 434 z "},"╛":{"ha":586,"x_min":0,"x_max":326,"o":"m 326 1042 l 326 347 l 0 347 l 0 434 l 195 434 l 195 521 l 0 521 l 0 608 l 195 608 l 195 1042 l 326 1042 z "},"╜":{"ha":586,"x_min":0,"x_max":456,"o":"m 326 1042 l 456 1042 l 456 347 l 0 347 l 0 434 l 130 434 l 130 1042 l 260 1042 l 260 434 l 326 434 l 326 1042 z "},"╝":{"ha":586,"x_min":0,"x_max":456,"o":"m 326 1042 l 456 1042 l 456 347 l 0 347 l 0 434 l 326 434 l 326 1042 m 0 521 l 0 608 l 130 608 l 130 1042 l 260 1042 l 260 521 l 0 521 z "},"╞":{"ha":586,"x_min":195,"x_max":586,"o":"m 326 1042 l 326 608 l 586 608 l 586 521 l 326 521 l 326 434 l 586 434 l 586 347 l 326 347 l 326 -347 l 195 -347 l 195 1042 l 326 1042 z "},"╟":{"ha":586,"x_min":130,"x_max":586,"o":"m 326 1042 l 456 1042 l 456 434 l 586 434 l 586 347 l 456 347 l 456 -347 l 326 -347 l 326 1042 m 260 -347 l 130 -347 l 130 1042 l 260 1042 l 260 -347 z "},"╠":{"ha":586,"x_min":130,"x_max":586,"o":"m 586 434 l 586 347 l 456 347 l 456 -347 l 326 -347 l 326 434 l 586 434 m 586 608 l 586 521 l 326 521 l 326 1042 l 456 1042 l 456 608 l 586 608 m 130 -347 l 130 1042 l 260 1042 l 260 -347 l 130 -347 z "},"╡":{"ha":586,"x_min":0,"x_max":326,"o":"m 326 1042 l 326 -347 l 195 -347 l 195 347 l 0 347 l 0 434 l 195 434 l 195 521 l 0 521 l 0 608 l 195 608 l 195 1042 l 326 1042 z "},"╢":{"ha":586,"x_min":0,"x_max":456,"o":"m 326 1042 l 456 1042 l 456 -347 l 326 -347 l 326 1042 m 0 347 l 0 434 l 130 434 l 130 1042 l 260 1042 l 260 -347 l 130 -347 l 130 347 l 0 347 z "},"╣":{"ha":586,"x_min":0,"x_max":456,"o":"m 0 347 l 0 434 l 260 434 l 260 -347 l 130 -347 l 130 347 l 0 347 m 0 521 l 0 608 l 130 608 l 130 1042 l 260 1042 l 260 521 l 0 521 m 326 1042 l 456 1042 l 456 -347 l 326 -347 l 326 1042 z "},"╤":{"ha":586,"x_min":0,"x_max":586,"o":"m 0 347 l 0 434 l 586 434 l 586 347 l 326 347 l 326 -347 l 195 -347 l 195 347 l 0 347 m 0 521 l 0 608 l 586 608 l 586 521 l 0 521 z "},"╥":{"ha":586,"x_min":0,"x_max":586,"o":"m 0 347 l 0 434 l 586 434 l 586 347 l 456 347 l 456 -347 l 326 -347 l 326 347 l 260 347 l 260 -347 l 130 -347 l 130 347 l 0 347 z "},"╦":{"ha":586,"x_min":0,"x_max":586,"o":"m 0 347 l 0 434 l 260 434 l 260 -347 l 130 -347 l 130 347 l 0 347 m 0 521 l 0 608 l 586 608 l 586 521 l 0 521 m 586 434 l 586 347 l 456 347 l 456 -347 l 326 -347 l 326 434 l 586 434 z "},"╧":{"ha":586,"x_min":0,"x_max":586,"o":"m 326 1042 l 326 608 l 586 608 l 586 521 l 0 521 l 0 608 l 195 608 l 195 1042 l 326 1042 m 0 347 l 0 434 l 586 434 l 586 347 l 0 347 z "},"╨":{"ha":586,"x_min":0,"x_max":586,"o":"m 326 1042 l 456 1042 l 456 434 l 586 434 l 586 347 l 0 347 l 0 434 l 130 434 l 130 1042 l 260 1042 l 260 434 l 326 434 l 326 1042 z "},"╩":{"ha":586,"x_min":0,"x_max":586,"o":"m 0 347 l 0 434 l 586 434 l 586 347 l 0 347 m 0 521 l 0 608 l 130 608 l 130 1042 l 260 1042 l 260 521 l 0 521 m 586 608 l 586 521 l 326 521 l 326 1042 l 456 1042 l 456 608 l 586 608 z "},"╪":{"ha":586,"x_min":0,"x_max":586,"o":"m 0 347 l 0 434 l 195 434 l 195 521 l 0 521 l 0 608 l 195 608 l 195 1042 l 326 1042 l 326 608 l 586 608 l 586 521 l 326 521 l 326 434 l 586 434 l 586 347 l 326 347 l 326 -347 l 195 -347 l 195 347 l 0 347 z "},"╫":{"ha":586,"x_min":0,"x_max":586,"o":"m 0 347 l 0 434 l 130 434 l 130 1042 l 260 1042 l 260 434 l 326 434 l 326 1042 l 456 1042 l 456 434 l 586 434 l 586 347 l 456 347 l 456 -347 l 326 -347 l 326 347 l 260 347 l 260 -347 l 130 -347 l 130 347 l 0 347 z "},"╬":{"ha":586,"x_min":0,"x_max":586,"o":"m 0 347 l 0 434 l 260 434 l 260 -347 l 130 -347 l 130 347 l 0 347 m 0 521 l 0 608 l 130 608 l 130 1042 l 260 1042 l 260 521 l 0 521 m 586 434 l 586 347 l 456 347 l 456 -347 l 326 -347 l 326 434 l 586 434 m 586 608 l 586 521 l 326 521 l 326 1042 l 456 1042 l 456 608 l 586 608 z "},"▀":{"ha":586,"x_min":0,"x_max":586,"o":"m 586 1042 l 586 434 l 0 434 l 0 1042 l 586 1042 z "},"▄":{"ha":586,"x_min":0,"x_max":586,"o":"m 0 434 l 586 434 l 586 -347 l 0 -347 l 0 434 z "},"█":{"ha":586,"x_min":0,"x_max":586,"o":"m 586 1042 l 586 -347 l 0 -347 l 0 1042 l 586 1042 z "},"▌":{"ha":586,"x_min":0,"x_max":260,"o":"m 0 -347 l 0 1042 l 260 1042 l 260 -347 l 0 -347 z "},"▐":{"ha":586,"x_min":260,"x_max":586,"o":"m 586 1042 l 586 -347 l 260 -347 l 260 1042 l 586 1042 z "},"░":{"ha":586,"x_min":65,"x_max":521,"o":"m 521 174 l 521 87 l 456 87 l 456 174 l 521 174 m 521 0 l 521 -87 l 456 -87 l 456 0 l 521 0 m 521 -174 l 521 -260 l 456 -260 l 456 -174 l 521 -174 m 521 434 l 456 434 l 456 521 l 521 521 l 521 434 m 521 347 l 521 260 l 456 260 l 456 347 l 521 347 m 521 608 l 456 608 l 456 694 l 521 694 l 521 608 m 521 868 l 521 781 l 456 781 l 456 868 l 521 868 m 521 1042 l 521 955 l 456 955 l 456 1042 l 521 1042 m 195 955 l 195 1042 l 260 1042 l 260 955 l 195 955 m 195 87 l 195 174 l 260 174 l 260 87 l 195 87 m 195 -87 l 195 0 l 260 0 l 260 -87 l 195 -87 m 195 -174 l 260 -174 l 260 -260 l 195 -260 l 195 -174 m 195 434 l 195 521 l 260 521 l 260 434 l 195 434 m 195 260 l 195 347 l 260 347 l 260 260 l 195 260 m 195 608 l 195 694 l 260 694 l 260 608 l 195 608 m 195 781 l 195 868 l 260 868 l 260 781 l 195 781 m 391 174 l 326 174 l 326 260 l 391 260 l 391 174 m 391 87 l 391 0 l 326 0 l 326 87 l 391 87 m 391 -87 l 391 -174 l 326 -174 l 326 -87 l 391 -87 m 391 434 l 391 347 l 326 347 l 326 434 l 391 434 m 391 -260 l 391 -347 l 326 -347 l 326 -260 l 391 -260 m 391 608 l 391 521 l 326 521 l 326 608 l 391 608 m 391 868 l 326 868 l 326 955 l 391 955 l 391 868 m 391 781 l 391 694 l 326 694 l 326 781 l 391 781 m 65 955 l 130 955 l 130 868 l 65 868 l 65 955 m 65 174 l 65 260 l 130 260 l 130 174 l 65 174 m 65 0 l 65 87 l 130 87 l 130 0 l 65 0 m 65 -174 l 65 -87 l 130 -87 l 130 -174 l 65 -174 m 65 347 l 65 434 l 130 434 l 130 347 l 65 347 m 65 -347 l 65 -260 l 130 -260 l 130 -347 l 65 -347 m 65 521 l 65 608 l 130 608 l 130 521 l 65 521 m 65 694 l 65 781 l 130 781 l 130 694 l 65 694 z "},"▒":{"ha":586,"x_min":0,"x_max":521,"o":"m 0 174 l 0 260 l 65 260 l 65 174 l 0 174 m 0 0 l 0 87 l 65 87 l 65 0 l 0 0 m 0 -174 l 0 -87 l 65 -87 l 65 -174 l 0 -174 m 0 347 l 0 434 l 65 434 l 65 347 l 0 347 m 0 -347 l 0 -260 l 65 -260 l 65 -347 l 0 -347 m 0 521 l 0 608 l 65 608 l 65 521 l 0 521 m 0 868 l 0 955 l 65 955 l 65 868 l 0 868 m 0 694 l 0 781 l 65 781 l 65 694 l 0 694 m 521 174 l 521 87 l 456 87 l 456 174 l 521 174 m 521 0 l 521 -87 l 456 -87 l 456 0 l 521 0 m 521 -174 l 521 -260 l 456 -260 l 456 -174 l 521 -174 m 521 434 l 456 434 l 456 521 l 521 521 l 521 434 m 521 347 l 521 260 l 456 260 l 456 347 l 521 347 m 521 608 l 456 608 l 456 694 l 521 694 l 521 608 m 521 868 l 521 781 l 456 781 l 456 868 l 521 868 m 521 1042 l 521 955 l 456 955 l 456 1042 l 521 1042 m 195 955 l 195 1042 l 260 1042 l 260 955 l 195 955 m 195 174 l 260 174 l 260 87 l 195 87 l 195 174 m 195 87 l 195 0 l 130 0 l 130 87 l 195 87 m 195 0 l 260 0 l 260 -87 l 195 -87 l 195 0 m 195 -87 l 195 -174 l 130 -174 l 130 -87 l 195 -87 m 195 -174 l 260 -174 l 260 -260 l 195 -260 l 195 -174 m 195 434 l 195 347 l 130 347 l 130 434 l 195 434 m 195 347 l 260 347 l 260 260 l 195 260 l 195 347 m 195 260 l 195 174 l 130 174 l 130 260 l 195 260 m 195 -260 l 195 -347 l 130 -347 l 130 -260 l 195 -260 m 195 608 l 195 521 l 130 521 l 130 608 l 195 608 m 195 521 l 260 521 l 260 434 l 195 434 l 195 521 m 195 868 l 260 868 l 260 781 l 195 781 l 195 868 m 195 781 l 195 694 l 130 694 l 130 781 l 195 781 m 195 694 l 260 694 l 260 608 l 195 608 l 195 694 m 391 174 l 391 87 l 326 87 l 326 174 l 391 174 m 391 87 l 456 87 l 456 0 l 391 0 l 391 87 m 391 0 l 391 -87 l 326 -87 l 326 0 l 391 0 m 391 -87 l 456 -87 l 456 -174 l 391 -174 l 391 -87 m 391 -174 l 391 -260 l 326 -260 l 326 -174 l 391 -174 m 391 434 l 326 434 l 326 521 l 391 521 l 391 434 m 391 347 l 391 434 l 456 434 l 456 347 l 391 347 m 391 260 l 326 260 l 326 347 l 391 347 l 391 260 m 391 -260 l 456 -260 l 456 -347 l 391 -347 l 391 -260 m 391 608 l 326 608 l 326 694 l 391 694 l 391 608 m 391 521 l 391 608 l 456 608 l 456 521 l 391 521 m 391 868 l 391 781 l 326 781 l 326 868 l 391 868 m 391 781 l 456 781 l 456 694 l 391 694 l 391 781 m 391 1042 l 391 955 l 326 955 l 326 1042 l 391 1042 m 391 955 l 456 955 l 456 868 l 391 868 l 391 955 m 65 955 l 65 1042 l 130 1042 l 130 955 l 65 955 m 65 174 l 130 174 l 130 87 l 65 87 l 65 174 m 65 0 l 130 0 l 130 -87 l 65 -87 l 65 0 m 65 -174 l 130 -174 l 130 -260 l 65 -260 l 65 -174 m 65 434 l 65 521 l 130 521 l 130 434 l 65 434 m 65 347 l 130 347 l 130 260 l 65 260 l 65 347 m 65 608 l 65 694 l 130 694 l 130 608 l 65 608 m 65 868 l 130 868 l 130 781 l 65 781 l 65 868 m 260 174 l 260 260 l 326 260 l 326 174 l 260 174 m 260 87 l 326 87 l 326 0 l 260 0 l 260 87 m 260 -87 l 326 -87 l 326 -174 l 260 -174 l 260 -87 m 260 434 l 326 434 l 326 347 l 260 347 l 260 434 m 260 -260 l 326 -260 l 326 -347 l 260 -347 l 260 -260 m 260 608 l 326 608 l 326 521 l 260 521 l 260 608 m 260 868 l 260 955 l 326 955 l 326 868 l 260 868 m 260 781 l 326 781 l 326 694 l 260 694 l 260 781 m 456 174 l 391 174 l 391 260 l 456 260 l 456 174 m 130 868 l 130 955 l 195 955 l 195 868 l 130 868 z "},"▓":{"ha":586,"x_min":0,"x_max":521,"o":"m 0 87 l 0 174 l 65 174 l 65 260 l 0 260 l 0 347 l 65 347 l 65 434 l 0 434 l 0 521 l 65 521 l 65 608 l 0 608 l 0 694 l 65 694 l 65 781 l 0 781 l 0 868 l 65 868 l 65 955 l 0 955 l 0 1042 l 130 1042 l 130 955 l 195 955 l 195 1042 l 391 1042 l 391 955 l 456 955 l 456 1042 l 521 1042 l 521 -347 l 326 -347 l 326 -260 l 260 -260 l 260 -347 l 65 -347 l 65 -260 l 0 -260 l 0 -174 l 65 -174 l 65 -87 l 0 -87 l 0 0 l 65 0 l 65 87 l 0 87 m 195 174 l 130 174 l 130 87 l 195 87 l 195 174 m 195 0 l 130 0 l 130 -87 l 195 -87 l 195 0 m 195 -174 l 130 -174 l 130 -260 l 195 -260 l 195 -174 m 195 434 l 195 521 l 130 521 l 130 434 l 195 434 m 195 347 l 130 347 l 130 260 l 195 260 l 195 347 m 195 608 l 195 694 l 130 694 l 130 608 l 195 608 m 195 868 l 130 868 l 130 781 l 195 781 l 195 868 m 391 174 l 391 87 l 456 87 l 456 174 l 391 174 m 391 0 l 391 -87 l 456 -87 l 456 0 l 391 0 m 391 -174 l 391 -260 l 456 -260 l 456 -174 l 391 -174 m 391 434 l 456 434 l 456 521 l 391 521 l 391 434 m 391 347 l 391 260 l 456 260 l 456 347 l 391 347 m 391 608 l 456 608 l 456 694 l 391 694 l 391 608 m 391 868 l 391 781 l 456 781 l 456 868 l 391 868 m 260 174 l 326 174 l 326 260 l 260 260 l 260 174 m 260 87 l 260 0 l 326 0 l 326 87 l 260 87 m 260 -87 l 260 -174 l 326 -174 l 326 -87 l 260 -87 m 260 434 l 260 347 l 326 347 l 326 434 l 260 434 m 260 608 l 260 521 l 326 521 l 326 608 l 260 608 m 260 868 l 326 868 l 326 955 l 260 955 l 260 868 m 260 781 l 260 694 l 326 694 l 326 781 l 260 781 z "},"■":{"ha":586,"x_min":65,"x_max":391,"o":"m 65 87 l 65 694 l 391 694 l 391 87 l 65 87 z "},"▬":{"ha":586,"x_min":0,"x_max":456,"o":"m 0 0 l 0 347 l 456 347 l 456 0 l 0 0 z "},"▲":{"ha":586,"x_min":0,"x_max":456,"o":"m 0 87 l 0 260 l 65 260 l 65 434 l 130 434 l 130 608 l 195 608 l 195 694 l 260 694 l 260 608 l 326 608 l 326 434 l 391 434 l 391 260 l 456 260 l 456 87 l 0 87 z "},"►":{"ha":586,"x_min":0,"x_max":456,"o":"m 0 0 l 0 955 l 65 955 l 65 868 l 130 868 l 130 781 l 195 781 l 195 694 l 260 694 l 260 608 l 326 608 l 326 521 l 456 521 l 456 434 l 326 434 l 326 347 l 260 347 l 260 260 l 195 260 l 195 174 l 130 174 l 130 87 l 65 87 l 65 0 l 0 0 z "},"▼":{"ha":586,"x_min":0,"x_max":456,"o":"m 0 521 l 0 694 l 456 694 l 456 521 l 391 521 l 391 347 l 326 347 l 326 174 l 260 174 l 260 87 l 195 87 l 195 174 l 130 174 l 130 347 l 65 347 l 65 521 l 0 521 z "},"◄":{"ha":586,"x_min":0,"x_max":456,"o":"m 0 434 l 0 521 l 130 521 l 130 608 l 195 608 l 195 694 l 260 694 l 260 781 l 326 781 l 326 868 l 391 868 l 391 955 l 456 955 l 456 0 l 391 0 l 391 87 l 326 87 l 326 174 l 260 174 l 260 260 l 195 260 l 195 347 l 130 347 l 130 434 l 0 434 z "},"○":{"ha":586,"x_min":65,"x_max":456,"o":"m 65 174 l 65 521 l 130 521 l 130 608 l 391 608 l 391 521 l 456 521 l 456 174 l 391 174 l 391 87 l 130 87 l 130 174 l 65 174 m 130 260 l 195 260 l 195 174 l 326 174 l 326 260 l 391 260 l 391 434 l 326 434 l 326 521 l 195 521 l 195 434 l 130 434 l 130 260 z "},"◘":{"ha":586,"x_min":0,"x_max":521,"o":"m 0 -347 l 0 1042 l 521 1042 l 521 -347 l 0 -347 m 130 260 l 195 260 l 195 174 l 326 174 l 326 260 l 391 260 l 391 434 l 326 434 l 326 521 l 195 521 l 195 434 l 130 434 l 130 260 z "},"◙":{"ha":586,"x_min":0,"x_max":521,"o":"m 0 -347 l 0 1042 l 521 1042 l 521 -347 l 0 -347 m 130 174 l 130 87 l 391 87 l 391 174 l 456 174 l 456 521 l 391 521 l 391 608 l 130 608 l 130 521 l 65 521 l 65 174 l 130 174 m 130 434 l 195 434 l 195 521 l 326 521 l 326 434 l 391 434 l 391 260 l 326 260 l 326 174 l 195 174 l 195 260 l 130 260 l 130 434 z "},"☺":{"ha":586,"x_min":0,"x_max":521,"o":"m 0 87 l 0 781 l 65 781 l 65 87 l 0 87 m 130 347 l 130 434 l 391 434 l 391 347 l 326 347 l 326 260 l 195 260 l 195 347 l 130 347 m 130 608 l 130 694 l 195 694 l 195 608 l 130 608 m 391 608 l 326 608 l 326 694 l 391 694 l 391 608 m 521 87 l 456 87 l 456 781 l 521 781 l 521 87 m 65 87 l 456 87 l 456 0 l 65 0 l 65 87 m 65 781 l 65 868 l 456 868 l 456 781 l 65 781 z "},"☻":{"ha":586,"x_min":0,"x_max":521,"o":"m 0 87 l 0 781 l 65 781 l 65 868 l 456 868 l 456 781 l 521 781 l 521 87 l 456 87 l 456 0 l 65 0 l 65 87 l 0 87 m 130 434 l 130 347 l 195 347 l 195 260 l 326 260 l 326 347 l 391 347 l 391 434 l 130 434 m 130 608 l 195 608 l 195 694 l 130 694 l 130 608 m 391 608 l 391 694 l 326 694 l 326 608 l 391 608 z "},"☼":{"ha":586,"x_min":0,"x_max":521,"o":"m 0 174 l 0 260 l 130 260 l 130 174 l 0 174 m 0 347 l 0 434 l 130 434 l 130 521 l 195 521 l 195 781 l 326 781 l 326 521 l 391 521 l 391 434 l 521 434 l 521 347 l 391 347 l 391 260 l 326 260 l 326 0 l 195 0 l 195 260 l 130 260 l 130 347 l 0 347 m 0 521 l 0 608 l 130 608 l 130 521 l 0 521 m 391 174 l 391 260 l 521 260 l 521 174 l 391 174 m 391 521 l 391 608 l 521 608 l 521 521 l 391 521 m 195 434 l 195 347 l 326 347 l 326 434 l 195 434 z "},"♀":{"ha":586,"x_min":65,"x_max":456,"o":"m 130 434 l 65 434 l 65 781 l 130 781 l 130 868 l 391 868 l 391 781 l 456 781 l 456 434 l 391 434 l 391 347 l 326 347 l 326 260 l 456 260 l 456 174 l 326 174 l 326 0 l 195 0 l 195 174 l 65 174 l 65 260 l 195 260 l 195 347 l 130 347 l 130 434 m 195 434 l 326 434 l 326 781 l 195 781 l 195 434 z "},"♂":{"ha":586,"x_min":0,"x_max":456,"o":"m 0 87 l 0 434 l 65 434 l 65 521 l 130 521 l 130 608 l 195 608 l 195 694 l 260 694 l 260 781 l 195 781 l 195 868 l 456 868 l 456 521 l 391 521 l 391 694 l 326 694 l 326 608 l 260 608 l 260 521 l 326 521 l 326 434 l 391 434 l 391 87 l 326 87 l 326 0 l 65 0 l 65 87 l 0 87 m 130 87 l 260 87 l 260 434 l 130 434 l 130 87 z "},"♠":{"ha":586,"x_min":0,"x_max":521,"o":"m 0 347 l 0 521 l 65 521 l 65 608 l 130 608 l 130 694 l 195 694 l 195 781 l 326 781 l 326 694 l 391 694 l 391 608 l 456 608 l 456 521 l 521 521 l 521 347 l 456 347 l 456 260 l 326 260 l 326 87 l 391 87 l 391 0 l 130 0 l 130 87 l 195 87 l 195 260 l 65 260 l 65 347 l 0 347 z "},"♣":{"ha":586,"x_min":0,"x_max":521,"o":"m 0 260 l 0 521 l 130 521 l 130 694 l 195 694 l 195 781 l 326 781 l 326 694 l 391 694 l 391 521 l 521 521 l 521 260 l 326 260 l 326 521 l 195 521 l 195 260 l 0 260 m 130 0 l 130 87 l 195 87 l 195 260 l 326 260 l 326 87 l 391 87 l 391 0 l 130 0 z "},"♥":{"ha":586,"x_min":0,"x_max":456,"o":"m 0 260 l 0 608 l 65 608 l 65 694 l 195 694 l 195 608 l 260 608 l 260 694 l 391 694 l 391 608 l 456 608 l 456 260 l 391 260 l 391 174 l 326 174 l 326 87 l 260 87 l 260 0 l 195 0 l 195 87 l 130 87 l 130 174 l 65 174 l 65 260 l 0 260 z "},"♦":{"ha":586,"x_min":0,"x_max":456,"o":"m 0 347 l 0 434 l 65 434 l 65 521 l 130 521 l 130 608 l 195 608 l 195 694 l 260 694 l 260 608 l 326 608 l 326 521 l 391 521 l 391 434 l 456 434 l 456 347 l 391 347 l 391 260 l 326 260 l 326 174 l 260 174 l 260 87 l 195 87 l 195 174 l 130 174 l 130 260 l 65 260 l 65 347 l 0 347 z "},"♪":{"ha":586,"x_min":0,"x_max":521,"o":"m 0 174 l 65 174 l 65 260 l 130 260 l 130 868 l 521 868 l 521 608 l 260 608 l 260 87 l 195 87 l 195 0 l 0 0 l 0 174 m 260 781 l 260 694 l 391 694 l 391 781 l 260 781 z "},"♫":{"ha":586,"x_min":0,"x_max":521,"o":"m 0 174 l 65 174 l 65 868 l 521 868 l 521 87 l 456 87 l 456 0 l 326 0 l 326 260 l 391 260 l 391 608 l 195 608 l 195 0 l 130 0 l 130 -87 l 0 -87 l 0 174 m 195 781 l 195 694 l 391 694 l 391 781 l 195 781 z "}}}
